<?xml version="1.0" encoding="UTF-8" standalone="no"?>
<!-- Created with Inkscape (http://www.inkscape.org/) -->

<svg
   xmlns:dc="http://purl.org/dc/elements/1.1/"
   xmlns:cc="http://creativecommons.org/ns#"
   xmlns:rdf="http://www.w3.org/1999/02/22-rdf-syntax-ns#"
   xmlns:svg="http://www.w3.org/2000/svg"
   xmlns="http://www.w3.org/2000/svg"
   xmlns:sodipodi="http://sodipodi.sourceforge.net/DTD/sodipodi-0.dtd"
   xmlns:inkscape="http://www.inkscape.org/namespaces/inkscape"
   width="1920"
   height="400"
   viewBox="0 0 507.99999 105.83334"
   version="1.1"
   id="svg8"
   inkscape:version="0.92.2 5c3e80d, 2017-08-06"
   sodipodi:docname="warm_bench-logo.svg"
   inkscape:export-filename="/home/julien/Documents/projects/2017/warmbench-website/images/warm_bench_white-logo-1920x400.png"
   inkscape:export-xdpi="96"
   inkscape:export-ydpi="96">
  <defs
     id="defs2" />
  <sodipodi:namedview
     id="base"
     pagecolor="#ffffff"
     bordercolor="#666666"
     borderopacity="1.0"
     inkscape:pageopacity="0.0"
     inkscape:pageshadow="2"
     inkscape:zoom="0.35"
     inkscape:cx="168.57142"
     inkscape:cy="-11.428571"
     inkscape:document-units="mm"
     inkscape:current-layer="svg8"
     showgrid="false"
     units="px"
     inkscape:window-width="1920"
     inkscape:window-height="1021"
     inkscape:window-x="0"
     inkscape:window-y="0"
     inkscape:window-maximized="1" />
  <metadata
     id="metadata5">
    <rdf:RDF>
      <cc:Work
         rdf:about="">
        <dc:format>image/svg+xml</dc:format>
        <dc:type
           rdf:resource="http://purl.org/dc/dcmitype/StillImage" />
        <dc:title></dc:title>
      </cc:Work>
    </rdf:RDF>
  </metadata>
  <rect
     style="fill:#000000;fill-opacity:1;stroke-width:0.22992909"
     id="rect4544"
     width="508"
     height="105.83334"
     x="-5.6843419e-14"
     y="-5.0862632e-06" />
  <g
     id="g4569"
     transform="matrix(0.49019608,0,0,0.49019608,129.4902,-5.3698041e-7)">
    <rect
       y="26.836308"
       x="139.86253"
       height="162.22739"
       width="228.27493"
       id="white-rect"
       style="fill:#ffffff;fill-opacity:1;stroke-width:0.19082801" />
    <path
       style="fill:#000000;stroke-width:0.08466666"
       d="M 114.29991,107.94999 V 1.5e-6 H 254.00008 393.70009 V 107.94999 215.9 H 254.00008 114.29991 Z m 135.20813,67.56491 c 0.57327,-0.10873 0.89244,-0.3438 1.1459,-0.844 0.25082,-0.49495 0.89093,-2.86002 0.8905,-3.29014 -8e-4,-0.49527 -0.25585,-0.79341 -1.2824,-1.4974 -2.21386,-1.5182 -2.9393,-2.18809 -4.2172,-3.89436 -1.75084,-2.33771 -2.3554,-3.37502 -6.29142,-10.795 -0.59602,-1.1236 -1.43176,-2.93922 -2.00708,-4.36034 -0.24506,-0.60537 -0.48872,-1.12786 -0.54147,-1.1611 -0.0527,-0.0332 -0.14007,-0.0142 -0.1941,0.0423 -0.13959,0.14603 -0.73486,6.38396 -0.67762,7.10089 0.0387,0.4843 0.022,0.58427 -0.11875,0.71163 -0.13784,0.12474 -0.16373,0.26405 -0.16373,0.88095 0,0.40303 -0.11208,2.10211 -0.24903,3.77571 -0.41923,5.12266 -0.45429,5.76274 -0.40547,7.40142 0.0539,1.81023 0.1996,2.65548 0.60763,3.52642 0.35615,0.76019 0.78197,1.2344 1.3643,1.51929 0.40477,0.19804 0.63782,0.23648 2.08794,0.34434 0.89778,0.0668 1.91806,0.15771 2.26731,0.20209 0.34927,0.0444 1.47322,0.12045 2.49769,0.16903 2.29461,0.10877 4.52609,0.22216 4.70865,0.23923 0.0751,0.007 0.33538,-0.0249 0.57835,-0.071 z m 15.41404,-0.25704 c 3.8846,-0.13381 4.34447,-0.1598 4.43516,-0.25048 0.0473,-0.0473 0.31655,-0.0866 0.59828,-0.0873 0.60364,-0.001 1.44835,-0.18642 1.89073,-0.41398 0.94552,-0.48632 1.27132,-1.42348 1.45987,-4.19911 0.10091,-1.48532 0.11045,-1.32208 -0.50201,-8.57436 -0.20261,-2.39931 -0.35299,-3.7848 -0.41779,-3.8496 -0.0786,-0.0786 -0.17022,-0.0641 -0.40889,0.0644 -0.1692,0.0911 -2.2164,2.10369 -4.54933,4.47237 -5.22048,5.30052 -6.2737,6.23178 -8.48674,7.50393 -1.00043,0.57509 -1.01646,0.62016 -0.63058,1.77191 0.31314,0.93469 0.67196,1.66321 1.15393,2.34293 0.65082,0.9178 1.37037,1.29976 2.45171,1.30147 0.32596,7.9e-4 1.67851,-0.0365 3.00566,-0.0822 z m -35.15524,-1.73801 c 0.63948,-0.26713 1.00525,-0.77007 1.49525,-2.05594 0.33959,-0.89116 0.37,-1.15647 0.14625,-1.27621 -0.16418,-0.0879 -0.25272,-0.0534 -1.08266,0.42136 -2.05694,1.1767 -4.22992,0.6662 -7.39885,-1.73822 -1.16076,-0.88071 -3.47676,-3.20685 -4.47097,-4.4905 -3.8906,-5.02334 -7.19134,-12.24766 -9.40183,-20.57777 -0.85967,-3.23959 -1.59115,-4.85336 -2.78384,-6.14162 -0.57739,-0.62365 -1.1316,-0.97592 -1.93834,-1.23212 -0.72843,-0.23132 -0.91041,-0.20794 -1.09037,0.14007 -0.16634,0.32166 -2.75086,7.58031 -2.75086,7.72583 0,0.062 -0.034,0.14892 -0.0757,0.19316 -0.2393,0.25436 -2.60083,7.39568 -3.73635,11.29878 -0.0881,0.30268 -0.31009,1.04563 -0.4934,1.651 -0.4539,1.49895 -0.73585,2.67882 -0.94083,3.937 -0.37162,2.28107 -0.13533,3.343 0.87568,3.9355 0.20078,0.11766 1.95985,0.74716 3.90905,1.39889 2.77628,0.92825 3.64113,1.18494 3.99242,1.18494 0.24664,0 0.44844,0.0299 0.44844,0.0664 0,0.15388 0.58474,0.38154 2.32515,0.90533 1.43056,0.43053 1.87127,0.53336 1.96226,0.45786 0.0912,-0.0757 0.22546,-0.0405 0.60314,0.15836 0.73493,0.38693 5.30533,1.56666 9.75513,2.51803 3.63683,0.77755 8.68732,1.63179 9.71987,1.64403 0.38149,0.004 0.73658,-0.0428 0.93134,-0.12418 z m -21.11899,-4.57117 c -0.0276,-0.0719 -0.0289,-0.15186 -0.003,-0.17781 0.0741,-0.0741 0.22776,0.0516 0.22776,0.18647 0,0.16246 -0.16151,0.15625 -0.22478,-0.009 z m 87.09289,1.6036 c 0.44363,-0.0758 0.81557,-0.19291 0.9697,-0.30522 0.19263,-0.14038 0.37727,-0.18358 0.80433,-0.18813 0.49669,-0.005 0.62336,-0.0455 1.21869,-0.38693 2.05795,-1.18015 4.16085,-3.2015 5.79145,-5.56688 0.43436,-0.6301 0.52901,-0.89022 0.36159,-0.99369 -0.0456,-0.0282 -0.62661,-0.14252 -1.29116,-0.25412 -1.33253,-0.22371 -2.40613,-0.51292 -3.32656,-0.89611 -2.29857,-0.95688 -6.21994,-4.39285 -10.66637,-9.34601 -3.74828,-4.17544 -4.93892,-5.46085 -6.51399,-7.03243 -2.42329,-2.41791 -4.14304,-3.86286 -5.94595,-4.99579 -0.83598,-0.52533 -2.3129,-1.2927 -2.93303,-1.52391 -0.37586,-0.14014 -0.4175,-0.14122 -0.54472,-0.014 -0.12342,0.12341 -0.12696,0.23263 -0.0341,1.0505 0.32687,2.87913 0.91816,5.73903 1.37275,6.63955 0.13643,0.27026 0.24805,0.56642 0.24805,0.65814 0,0.0917 0.0339,0.18769 0.0753,0.21327 0.0414,0.0256 0.1014,0.15167 0.13331,0.28017 0.12255,0.49328 1.53859,4.30684 2.34411,6.31293 1.39668,3.47828 2.74372,6.40314 3.90702,8.48339 1.6448,2.94126 4.14792,5.42495 6.81947,6.76652 2.33121,1.17067 4.68801,1.52981 7.21012,1.09874 z m -66.59044,-0.40287 c 1.30537,-0.34921 2.46552,-1.36429 2.88939,-2.5281 0.0798,-0.21913 0.15993,-0.86577 0.20273,-1.63632 0.0645,-1.16082 0.17255,-2.20259 0.67643,-6.51895 0.0927,-0.79363 0.16846,-1.75318 0.16846,-2.13233 0,-0.37914 0.0395,-0.79319 0.0877,-0.9201 0.0483,-0.12689 0.22257,-1.5486 0.38739,-3.15933 0.38483,-3.76098 0.34681,-4.36848 -0.32096,-5.12709 -0.41574,-0.47233 -0.81278,-0.60646 -2.12683,-0.71855 -0.56815,-0.0485 -1.71881,-0.14577 -2.55701,-0.21624 -1.66554,-0.14002 -6.44712,-0.68378 -8.94092,-1.01678 -0.86619,-0.11567 -1.76744,-0.21029 -2.00275,-0.21029 -0.474,0 -2.40572,-0.19572 -3.43556,-0.34811 -0.42808,-0.0633 -0.67981,-0.14138 -0.71004,-0.22013 -0.0258,-0.0671 0.0751,-0.58583 0.2242,-1.15273 0.14906,-0.56689 0.30707,-1.16966 0.35112,-1.3395 0.0441,-0.16982 0.13541,-0.33001 0.20299,-0.35595 0.0676,-0.0259 1.6388,0.0887 3.49159,0.25476 1.85278,0.16605 3.75605,0.30716 4.22948,0.3136 1.06497,0.0145 1.20624,-0.0679 1.66237,-0.96892 0.27301,-0.53935 0.3728,-0.90477 0.65815,-2.4099 0.4368,-2.30392 0.48328,-2.72769 0.30657,-2.79549 -0.0738,-0.0283 -0.48588,0.009 -0.91577,0.0828 -2.38586,0.40984 -6.07917,-0.28084 -8.80119,-1.64587 -0.93917,-0.47095 -1.5967,-0.90069 -2.95816,-1.93322 -1.80747,-1.37081 -3.04737,-1.86949 -4.35942,-1.75332 -0.61758,0.0547 -2.41148,0.50074 -2.67459,0.66506 -0.0833,0.0521 -0.21069,0.22978 -0.28302,0.39495 -0.25132,0.57394 -0.97939,2.66489 -0.97939,2.81268 0,0.19101 0.154,0.26492 0.93133,0.44694 0.93521,0.21898 1.71801,0.6574 2.41988,1.35526 1.06899,1.0629 1.39546,1.78313 2.78389,6.14178 2.19968,6.90532 2.61844,8.08486 3.78741,10.66801 1.13029,2.49769 2.31116,4.6658 3.68557,6.76688 1.50903,2.30686 2.65392,3.72533 4.31216,5.34277 2.0913,2.0398 3.73942,3.17444 5.46487,3.76221 0.70601,0.24049 1.48048,0.27648 2.14191,0.0995 z m 22.40476,-1.53574 c 0.0289,-0.37253 0.0793,-3.61103 0.11194,-7.19667 0.0541,-5.94839 0.11655,-7.89623 0.26559,-8.2846 0.0879,-0.22918 0.36369,-0.16078 0.54607,0.13544 0.0932,0.15133 0.32444,0.77046 0.5139,1.37583 0.18946,0.60537 0.68743,2.18652 1.1066,3.51367 0.41916,1.32715 1.0835,3.53695 1.47631,4.91066 0.82391,2.88133 0.84482,2.94078 1.05839,3.00856 0.12974,0.0412 0.16022,0.13344 0.16022,0.48479 0,0.37764 0.18551,1.07679 0.62073,2.33943 0.21346,0.61927 0.40207,0.57517 1.97098,-0.46083 1.85238,-1.22319 2.93726,-2.19591 7.73764,-6.93768 1.83938,-1.81693 3.73345,-3.67203 4.20902,-4.12244 0.53089,-0.50279 0.88868,-0.91118 0.92683,-1.05787 0.0562,-0.21598 -0.65428,-8.59215 -0.81697,-9.6323 -0.0417,-0.2668 -0.13054,-0.47133 -0.24485,-0.5639 -0.21217,-0.17179 -0.22474,-0.27137 -0.0524,-0.41443 0.18227,-0.1513 0.16618,-0.52927 -0.1743,-4.08892 -0.16573,-1.73254 -0.28197,-3.2767 -0.25834,-3.43143 0.0238,-0.15592 -0.0108,-0.40128 -0.0776,-0.55035 -0.0663,-0.14792 -0.17642,-0.91723 -0.2447,-1.70956 -0.0683,-0.79233 -0.15006,-1.50811 -0.18172,-1.59063 -0.0791,-0.20618 -0.39527,-0.35293 -1.1046,-0.51276 -2.08072,-0.46882 -4.26315,-0.31165 -6.94014,0.49978 -2.05079,0.62163 -3.28944,1.17919 -7.93948,3.57385 -1.94892,1.00365 -3.98726,2.02297 -4.52966,2.26516 -2.70351,1.20718 -5.25079,1.81952 -7.56883,1.81952 -1.19791,0 -2.10443,-0.13646 -3.30403,-0.49741 -0.70038,-0.21073 -0.84509,-0.23113 -0.94326,-0.13296 -0.18034,0.18036 -0.31812,1.1771 -0.29444,2.13014 0.0178,0.71602 -0.003,0.89323 -0.1222,1.02458 -0.11916,0.13169 -0.14596,0.36002 -0.15684,1.33607 -0.0124,1.10908 0.003,1.22872 0.26235,2.06625 0.4552,1.46898 1.25865,3.5207 1.90648,4.86833 0.6745,1.40316 3.10737,5.98361 4.09226,7.70468 1.23871,2.16461 2.98982,4.6651 4.37321,6.24472 1.14217,1.30419 2.8297,2.6206 3.30912,2.5814 l 0.254,-0.0208 z m 69.63928,-6.56029 c 2.81808,-1.18634 4.82633,-2.1018 7.52407,-3.42981 2.74747,-1.35249 3.22736,-1.68823 3.6511,-2.55431 0.19227,-0.39298 0.23214,-0.58644 0.23078,-1.11966 -10e-4,-0.35792 -0.0668,-0.86603 -0.14817,-1.14246 -0.22629,-0.76895 -1.64687,-4.33092 -1.816,-4.55348 -0.0828,-0.10889 -0.25574,-0.40755 -0.3844,-0.66367 -0.3836,-0.76363 -0.34417,-0.74966 -1.97563,-0.70037 -1.26948,0.0383 -1.55974,0.0191 -2.73268,-0.18087 -1.9513,-0.33271 -2.83318,-0.51314 -5.63033,-1.1519 -4.2506,-0.97066 -4.24473,-0.96966 -5.67267,-0.96105 -0.6985,0.004 -1.38139,0.0434 -1.51753,0.0871 -0.47616,0.15287 -0.46943,0.21467 0.23987,2.20154 0.36295,1.0167 0.73563,1.97283 0.82817,2.12476 0.0925,0.15191 0.18719,0.39956 0.21033,0.55032 0.0231,0.15077 0.5122,1.72194 1.0868,3.49147 0.5746,1.76953 1.29594,4.04855 1.60299,5.06448 0.87593,2.89808 1.47662,3.86018 2.3443,3.75469 0.16918,-0.0206 1.14073,-0.38813 2.159,-0.8168 z m -15.53651,-0.13711 c 0.6725,-0.33871 1.20702,-1.51933 1.85512,-4.0976 0.7098,-2.82375 0.97013,-5.06261 0.97013,-8.34341 0,-2.23008 -0.0143,-2.48082 -0.15319,-2.69284 -0.13537,-0.20661 -0.1415,-0.28609 -0.0526,-0.68331 0.13334,-0.59581 -0.0236,-1.45966 -0.69349,-3.81678 -0.71358,-2.51092 -0.89213,-3.03423 -1.32202,-3.87484 -0.44951,-0.87895 -0.86682,-1.27757 -1.54342,-1.47425 -0.40501,-0.11774 -0.60272,-0.12274 -1.48394,-0.0375 -0.55917,0.0541 -2.20289,0.19048 -3.65268,0.30306 -1.83893,0.14282 -2.73499,0.24606 -2.96333,0.34144 -0.91541,0.3824 -1.13983,1.08515 -0.95521,2.99128 0.0913,0.94295 0.0854,1.22276 -0.0487,2.30114 -0.084,0.67522 -0.14655,1.41817 -0.13902,1.651 0.0185,0.57104 -0.16218,0.83987 -1.02171,1.52056 -1.15976,0.91846 -1.93351,1.18408 -2.86632,0.98401 -2.86042,-0.61345 -5.60565,-4.90674 -6.79871,-10.63257 -0.23362,-1.12122 -0.44552,-2.75957 -0.55848,-4.318 -0.0686,-0.9462 -0.059,-1.07126 0.13878,-1.82033 0.69093,-2.61636 0.84863,-2.9606 1.57991,-3.44934 0.8607,-0.5752 2.60625,-0.84834 3.24339,-0.50748 0.14698,0.0786 0.57157,0.53435 0.94356,1.01273 0.83301,1.07123 1.98098,2.20306 2.41864,2.38459 0.28295,0.11737 0.3188,0.1617 0.26397,0.32648 -0.11825,0.35542 -0.067,0.63584 0.29768,1.63022 0.47435,1.29322 0.75312,1.70478 1.36657,2.01743 0.44072,0.22462 0.54544,0.24266 1.35467,0.23341 0.48236,-0.006 2.31102,-0.0995 4.0637,-0.20886 3.44379,-0.21488 3.71329,-0.26475 3.94457,-0.72985 0.25481,-0.51241 0.024,-1.90787 -0.57413,-3.47133 -0.13362,-0.34925 -0.39125,-1.03505 -0.57251,-1.524 -0.44346,-1.19619 -1.17339,-2.79609 -1.81554,-3.97934 -0.54571,-1.00555 -0.7394,-1.17781 -1.04198,-0.92672 -0.0678,0.0563 -0.49091,0.70292 -0.9403,1.43705 -0.94553,1.5446 -1.57856,2.34542 -2.37872,3.00925 -0.58988,0.48939 -1.60465,1.13709 -1.7815,1.13709 -0.22054,0 -0.0648,-0.17523 0.77619,-0.87316 1.79826,-1.49241 3.36417,-3.48338 3.86867,-4.91878 0.26395,-0.75097 0.18733,-1.01593 -0.54896,-1.89874 -1.48751,-1.78351 -2.76928,-3.03932 -3.95507,-3.87497 -0.82067,-0.57833 -1.28826,-0.79146 -1.74162,-0.79382 -0.2735,-0.001 -0.42389,-0.0607 -0.64366,-0.25366 -0.20738,-0.18208 -0.70626,-0.39159 -1.80211,-0.7568 -1.90856,-0.63607 -3.10425,-0.89146 -3.80133,-0.81195 -0.2794,0.0319 -1.1938,0.0668 -2.032,0.0776 -1.18987,0.0154 -1.71314,0.0602 -2.38662,0.20449 -2.97074,0.63648 -5.44447,2.19306 -6.86162,4.3176 -1.02497,1.53658 -2.34837,5.05636 -2.89265,7.69342 -0.21014,1.01809 -0.22611,1.63498 -0.0511,1.97339 0.10491,0.20289 0.11024,0.32366 0.0306,0.6943 -0.0951,0.44263 -0.0511,2.26087 0.0618,2.55514 0.0824,0.21463 0.40987,0.16331 1.07381,-0.16831 1.0325,-0.51568 2.01238,-1.2155 2.88603,-2.06121 1.15397,-1.11703 1.33721,-1.3175 2.09947,-2.29673 0.63041,-0.80985 1.02319,-1.38611 2.53258,-3.71556 1.46694,-2.26392 3.07445,-3.93281 4.743,-4.92407 0.90849,-0.53972 0.89308,-0.3092 -0.0297,0.44465 -1.97534,1.61372 -2.6325,2.37108 -4.50859,5.19612 -0.80404,1.21074 -1.87127,2.76474 -2.37163,3.45336 -1.47663,2.03227 -3.21405,3.52403 -4.79432,4.11643 -1.09383,0.41006 -1.42245,0.58305 -1.52179,0.80112 -0.12247,0.26877 0.38768,5.08359 0.56846,5.36508 0.18847,0.29348 0.43984,0.42395 1.70011,0.88233 1.85105,0.67328 2.47683,1.01605 4.12979,2.26207 2.1798,1.64318 3.74205,3.13896 7.57183,7.24961 6.31253,6.77554 8.23888,8.65769 10.76281,10.51597 1.46025,1.07513 2.80888,1.84666 4.1799,2.3913 1.52662,0.60644 3.19255,0.8048 3.87452,0.46134 z m -120.86844,-2.95361 c 1.34405,-0.34095 2.54617,-1.00866 4.09778,-2.27611 1.78585,-1.45878 4.57607,-4.51342 4.57607,-5.00976 0,-0.14237 0.11214,-0.27715 0.38926,-0.46781 0.79403,-0.54631 1.91356,-2.64262 3.0736,-5.75535 1.04447,-2.80259 1.42391,-4.46588 1.50784,-6.6096 0.052,-1.32915 0.0423,-1.36602 -0.43229,-1.6417 -0.13635,-0.0792 -0.13681,-0.10602 -0.007,-0.41514 0.12846,-0.30634 0.12838,-0.35718 -0.001,-0.69649 -0.0769,-0.20131 -0.34284,-0.6782 -0.59105,-1.05974 -0.24819,-0.38155 -0.43247,-0.74269 -0.4095,-0.80256 0.023,-0.0599 0.40984,-0.34522 0.85969,-0.63413 1.77915,-1.1426 2.02902,-1.32934 2.76478,-2.06612 0.72498,-0.72598 1.51592,-1.76602 2.70478,-3.55659 0.90823,-1.36792 1.34203,-2.96843 1.3419,-4.9509 0,-2.02308 -0.43686,-3.55045 -1.37602,-4.81241 -1.84266,-2.47603 -4.27621,-3.65426 -7.54758,-3.65426 h -1.07984 l -0.29977,0.35984 c -0.16486,0.1979 -0.5915,0.71446 -0.94811,1.1479 -0.97157,1.18096 -2.12009,2.14702 -3.42747,2.88295 -0.4738,0.26669 -0.75516,0.33584 -0.75516,0.18557 0,-0.0442 0.40845,-0.35845 0.9077,-0.69827 0.49922,-0.33982 1.2632,-0.95773 1.69773,-1.37314 0.79339,-0.75847 1.79725,-1.99159 1.79725,-2.20768 0,-0.0637 -0.0613,-0.17709 -0.13632,-0.25206 -0.12348,-0.12347 -0.78327,-0.13401 -7.00618,-0.11188 l -6.86985,0.0244 -0.50297,0.20263 c -0.60569,0.24399 -1.19841,0.80748 -1.47832,1.4054 -0.26779,0.57204 -0.60104,1.91765 -0.60104,2.4269 0,0.28912 -0.0741,0.56175 -0.24447,0.89931 -0.44155,0.87487 -0.65872,1.90492 -0.41851,1.98498 0.0544,0.0182 0.50211,-0.0723 0.99482,-0.2011 0.90525,-0.23656 1.44616,-0.3002 1.44616,-0.17016 0,0.039 -0.41868,0.15771 -0.9304,0.26372 -1.04467,0.21641 -1.77348,0.5287 -2.18013,0.93413 -0.15081,0.15036 -0.44786,0.60267 -0.6601,1.00512 -0.21227,0.40246 -0.61222,1.03653 -0.88881,1.40907 -0.27658,0.37252 -0.5627,0.80506 -0.63581,0.96118 -0.0731,0.15611 -0.59753,0.85273 -1.16535,1.54804 -0.56781,0.69531 -1.0705,1.34862 -1.11707,1.45182 -0.0974,0.21584 -0.92364,1.00518 -1.2065,1.15262 -0.20113,0.10484 -0.25673,0.41656 -0.1019,0.5714 0.0617,0.0617 -0.0281,0.13317 -0.29562,0.23532 -0.27561,0.10527 -0.55188,0.33033 -0.97731,0.79618 -0.3262,0.35719 -0.59322,0.71611 -0.59338,0.7976 -1.7e-4,0.0815 -0.0449,0.14817 -0.0993,0.14817 -0.0545,0 -0.62597,0.52211 -1.27,1.16026 -0.949,0.94034 -1.17095,1.20514 -1.17095,1.397 0,0.20959 -0.0309,0.23674 -0.2693,0.23674 -0.23957,0 -0.55063,0.27832 -2.81517,2.51883 -1.40022,1.38536 -2.59128,2.61409 -2.6468,2.7305 -0.0555,0.11642 -0.51991,0.68208 -1.03199,1.25701 -1.03187,1.15853 -1.19539,1.47905 -1.19539,2.34288 0,1.11168 0.69,1.94884 2.74933,3.33566 3.28186,2.2101 8.99364,5.67979 9.35006,5.67979 0.0831,0 0.22213,0.0786 0.30903,0.17461 0.33455,0.36967 7.14207,4.05873 7.48968,4.05873 0.24957,0 0.112,-0.32815 -0.53667,-1.28014 -2.04837,-3.00621 -3.18904,-5.6594 -4.6683,-10.85856 -1.35263,-4.75404 -2.07885,-6.30775 -3.75175,-8.02668 -0.65687,-0.67493 -0.78573,-0.91663 -0.48872,-0.91663 0.23135,0 1.35214,0.97758 1.8663,1.62781 0.6214,0.78582 1.27644,1.93487 1.6955,2.97414 0.16362,0.40578 0.69478,2.02467 1.18037,3.59754 1.18034,3.82338 1.66688,5.11962 2.93209,7.81188 2.40232,5.11189 3.76757,6.69709 6.04541,7.01941 0.76767,0.10863 2.17306,0.011 3.05248,-0.21211 z m -4.32248,-16.8616 c -1.14224,-0.23351 -4.35853,-1.11898 -4.56288,-1.25619 -0.47435,-0.31852 -0.4215,-0.49931 0.58515,-2.00175 0.94397,-1.4089 1.07019,-1.52816 1.73406,-1.63841 0.58869,-0.0978 0.75676,-0.0797 1.43934,0.15472 0.34925,0.11994 1.27109,0.33416 2.04853,0.476 1.59296,0.29067 2.08631,0.46795 2.54648,0.91498 0.65896,0.64014 0.57899,1.46638 -0.21323,2.20305 -0.23514,0.21864 -0.55268,0.52135 -0.70564,0.6727 -0.20014,0.19802 -0.35684,0.27559 -0.55896,0.27668 -0.15447,7.9e-4 -0.6428,0.0573 -1.08518,0.12549 -0.82173,0.12664 -0.93203,0.13317 -1.22767,0.0727 z M 171.0107,130.4135 c 0.0611,-0.0245 0.13415,-0.0215 0.16228,0.007 0.0281,0.0281 -0.0219,0.0481 -0.11112,0.0445 -0.0986,-0.004 -0.1187,-0.0241 -0.0512,-0.0512 z m 14.62088,-3.15934 c -1.24135,-0.1068 -1.35912,-0.20605 -1.01823,-0.85799 0.11764,-0.22499 0.21389,-0.50621 0.21389,-0.62495 0,-0.11872 0.0554,-0.23715 0.12321,-0.26316 0.0678,-0.026 0.2402,-0.25456 0.38317,-0.50789 0.45934,-0.81392 0.45526,-0.81288 3.00728,-0.76417 2.49886,0.0477 3.03851,0.13308 3.45165,0.54623 0.19727,0.19727 0.26402,0.35177 0.29608,0.68525 0.0408,0.42488 0.0359,0.43564 -0.37152,0.81808 -1.01775,0.9553 -1.37714,1.05722 -3.66674,1.03999 -0.9578,-0.007 -2.04626,-0.0393 -2.41879,-0.0714 z m -5.01534,-6.32625 c 0.12869,-0.0195 0.31919,-0.0189 0.42333,0.001 0.10414,0.0201 -0.001,0.036 -0.23399,0.0354 -0.23284,-7.9e-4 -0.31804,-0.0171 -0.18934,-0.0365 z m 158.40957,32.24896 c 0.87134,-0.45401 3.59586,-2.07153 5.99093,-3.55674 0.86148,-0.53421 1.66158,-0.99571 1.778,-1.02553 0.12459,-0.0319 0.26392,-0.16527 0.33867,-0.32411 0.083,-0.17641 0.22542,-0.30307 0.41123,-0.36573 0.32832,-0.11076 2.87241,-1.77981 3.34391,-2.19379 1.09084,-0.95777 0.69251,-1.83039 -2.53128,-5.54531 -0.83761,-0.96523 -1.47545,-1.64806 -1.93763,-2.07433 -0.50834,-0.46885 -5.04093,-5.29488 -5.84462,-6.223 -0.40324,-0.46567 -0.91184,-0.99929 -1.13022,-1.18582 -0.42268,-0.36104 -1.62509,-1.63521 -1.94182,-2.05774 -0.10853,-0.14478 -0.39122,-0.33695 -0.65882,-0.44786 -0.35539,-0.14731 -0.45522,-0.22608 -0.41286,-0.32577 0.16082,-0.3784 0.10622,-0.49707 -0.85895,-1.86715 -1.24196,-1.76297 -1.80639,-2.71689 -2.29002,-3.87026 -0.21065,-0.50237 -0.54855,-1.2944 -0.75087,-1.76007 -0.2505,-0.57653 -0.46632,-1.2924 -0.67644,-2.24367 -0.38933,-1.76258 -0.50016,-2.13644 -0.76964,-2.59627 -0.22995,-0.39238 -0.68321,-0.74426 -1.12014,-0.86957 -0.14483,-0.0415 -1.24661,-0.0865 -2.44841,-0.0999 -1.87346,-0.0209 -2.22141,-0.005 -2.43978,0.11126 -0.14008,0.0746 -0.59728,0.4856 -1.016,0.91337 -1.27424,1.30179 -2.48687,2.13518 -4.0573,2.78846 -1.00926,0.41983 -1.06462,0.4615 -1.06334,0.80014 0.002,0.4003 0.3803,1.84018 0.5946,2.26024 0.10407,0.20397 0.24026,0.61487 0.30266,0.9131 0.0624,0.29825 0.32158,0.96597 0.57596,1.48385 0.62577,1.27395 1.31978,2.90949 1.31978,3.11022 0,0.0957 -0.0857,0.19649 -0.20594,0.24222 -0.35803,0.13612 -1.83723,0.19965 -2.22095,0.0954 -0.42066,-0.11431 -0.54036,-0.29532 -1.29943,-1.96498 -0.28261,-0.62162 -0.5836,-1.20724 -0.66887,-1.30139 -0.0853,-0.0941 -0.1742,-0.32436 -0.19761,-0.51163 -0.0549,-0.4395 -0.97721,-3.43049 -1.10543,-3.58499 -0.0749,-0.0903 -0.24144,-0.10564 -0.71343,-0.0657 -0.33862,0.0286 -0.61567,0.0216 -0.61567,-0.0155 0,-0.0372 0.20002,-0.11764 0.4445,-0.17884 0.24447,-0.0612 0.51117,-0.16955 0.59266,-0.24079 0.16552,-0.14471 0.18939,-0.54195 0.0649,-1.0806 -0.0435,-0.18828 -0.13872,-0.91021 -0.21161,-1.6043 -0.1402,-1.33508 -0.23667,-1.62079 -0.6517,-1.93013 -0.34623,-0.25806 -1.79372,-0.31633 -6.4618,-0.26016 -4.00735,0.0482 -4.07011,0.0516 -4.50263,0.24403 -0.71866,0.31969 -1.0773,0.93694 -1.17962,2.0302 -0.0519,0.55459 0.27236,3.1945 0.57199,4.65666 0.21067,1.02801 1.06257,4.01529 1.18827,4.16675 0.21781,0.26245 0.40838,0.1182 0.70565,-0.53414 0.44044,-0.96647 0.98143,-1.72198 1.76237,-2.46121 0.57652,-0.54572 1.55802,-1.21373 1.78333,-1.21373 0.17741,0 -0.008,0.29158 -0.35052,0.55029 -0.55157,0.417 -1.41594,1.27318 -1.76656,1.74981 -0.37005,0.50304 -0.981,1.81263 -1.17837,2.5259 -0.0896,0.32365 -0.15351,0.84677 -0.15528,1.27 -0.003,0.64025 0.0269,0.7813 0.26803,1.2782 0.14906,0.30719 0.27101,0.60538 0.27101,0.66264 0,0.0573 0.17145,0.54259 0.381,1.07852 0.20955,0.53592 0.381,1.06127 0.381,1.16744 0,0.10616 0.0703,0.2839 0.15615,0.39495 0.0859,0.11105 0.22568,0.39242 0.31068,0.62525 0.24651,0.6753 0.31146,0.71979 1.04913,0.71879 2.30611,-0.003 4.51235,-0.46113 7.12004,-1.47807 1.32024,-0.51486 3.39751,-1.53701 4.60129,-2.26411 0.45849,-0.27693 0.97284,-0.55416 1.143,-0.61605 0.17016,-0.0619 0.74753,-0.32178 1.28304,-0.57754 1.60926,-0.76857 3.27642,-1.28656 4.94878,-1.5376 1.00786,-0.15129 2.92895,-0.25279 2.75589,-0.1456 -0.0699,0.0433 -0.5842,0.10111 -1.143,0.12855 -2.60152,0.12774 -4.21703,0.72502 -9.15891,3.3862 -2.36929,1.27586 -4.70572,2.2838 -6.51362,2.81002 -0.9759,0.28404 -1.93273,0.42462 -3.75847,0.55221 -0.81492,0.057 -1.53324,0.14464 -1.59629,0.19486 -0.192,0.15298 -0.01,0.87701 0.39778,1.58001 0.0405,0.0699 0.20183,0.52705 0.35854,1.016 0.15671,0.48895 0.42887,1.18711 0.60479,1.55146 0.17591,0.36436 0.31985,0.77275 0.31985,0.90756 0,0.1348 0.0747,0.38915 0.166,0.5652 0.0913,0.17606 0.60569,1.44273 1.14307,2.81483 0.5374,1.37209 1.03268,2.55032 1.10064,2.61827 0.0987,0.0987 0.45173,0.12631 1.75675,0.13727 2.00726,0.0168 1.63902,-0.0476 8.17847,1.4305 2.8938,0.65406 3.9222,0.81899 5.43507,0.87162 1.36045,0.0473 1.97089,-0.032 2.06144,-0.26797 0.0258,-0.0671 -0.16539,-0.55251 -0.42479,-1.07858 -1.13713,-2.30611 -1.2742,-2.82346 -0.81115,-3.06152 0.29646,-0.15242 1.83219,-0.56198 2.10725,-0.56198 0.5453,0 1.03387,0.55451 1.9396,2.20134 0.51556,0.93742 0.76081,1.27 0.93653,1.27 0.0587,0 0.44256,-0.22484 0.85307,-0.49964 0.73747,-0.49366 1.28102,-0.94724 3.71336,-3.0987 1.68933,-1.49425 2.96379,-2.41428 3.16882,-2.28756 0.18687,0.11549 0.0664,0.30387 -0.44197,0.69084 -0.8963,0.68235 -1.92071,1.56987 -3.04265,2.63612 -1.41382,1.34361 -2.2137,2.02042 -3.12737,2.64621 -0.4812,0.32958 -0.75147,0.57005 -0.75147,0.66861 0,0.21211 0.31469,0.90942 0.59649,1.32174 0.12854,0.18808 0.24694,0.41668 0.26311,0.508 0.058,0.32784 2.10017,4.23986 2.3741,4.54797 0.63269,0.71165 1.16395,0.74936 2.29003,0.16262 z m -95.54228,-11.78921 c 1.14962,-0.1263 2.24758,-0.37378 3.53154,-0.796 2.06651,-0.67956 2.69007,-0.97166 9.18635,-4.30321 2.53884,-1.302 3.78905,-1.85752 5.37633,-2.38888 2.64426,-0.88519 5.07493,-1.07329 7.54082,-0.58357 0.99425,0.19745 1.00412,0.18664 0.93123,-1.02158 -0.031,-0.51376 -0.11061,-1.39129 -0.17695,-1.95009 -0.0663,-0.5588 -0.15956,-1.69948 -0.20714,-2.53483 -0.0476,-0.83536 -0.16233,-2.49271 -0.25497,-3.683 -0.0926,-1.1903 -0.18155,-2.36361 -0.19757,-2.60736 -0.0382,-0.58143 -0.19368,-0.73731 -0.91067,-0.91302 -0.32253,-0.079 -0.58642,-0.17721 -0.58642,-0.21817 0,-0.041 0.27706,-0.0511 0.61568,-0.0224 0.82182,0.0695 0.86251,0.0198 0.79128,-0.96466 -0.0295,-0.4073 -0.0753,-1.2549 -0.10192,-1.88355 -0.0299,-0.70709 -0.0942,-1.24475 -0.16869,-1.40979 -0.0662,-0.14675 -0.12035,-0.34113 -0.12035,-0.43198 0,-0.27414 -0.36444,-0.72761 -0.76527,-0.95223 l -0.37773,-0.21166 -4.47695,-0.024 c -5.0605,-0.0272 -5.13069,-0.0203 -5.70822,0.55721 -0.52814,0.52815 -0.54397,0.64045 -0.58489,4.15259 -0.0329,2.82828 -0.0224,3.17775 0.10029,3.31327 0.12725,0.14061 0.12113,0.17505 -0.085,0.47887 l -0.22216,0.32736 0.051,1.77804 c 0.0599,2.08937 0.003,2.69736 -0.25467,2.73426 -0.29182,0.0417 -0.452,-0.24631 -0.96261,-1.73096 -0.5852,-1.70149 -0.66227,-1.87405 -0.86591,-1.93868 -0.11824,-0.0375 -0.15648,-0.1334 -0.15648,-0.39241 0,-0.41679 -1.29064,-3.91311 -1.54917,-4.19668 -0.0955,-0.10477 -0.26342,-0.1905 -0.37312,-0.1905 h -0.19944 l 0.18532,-0.25065 0.1853,-0.25065 -0.3228,-0.78651 c -0.47163,-1.14913 -0.82158,-1.82013 -1.25835,-2.4127 -0.43851,-0.59496 -0.57347,-0.67984 -1.57843,-0.9928 l -0.71967,-0.22412 -3.76768,0.0245 c -4.32127,0.0282 -4.20872,0.01 -4.72092,0.77607 -0.50425,0.75451 -0.6097,1.42436 -0.79206,5.03131 -0.13127,2.59683 -0.24596,2.40196 1.44539,2.45594 0.65391,0.0209 1.18892,0.0694 1.18892,0.10792 0,0.13257 -0.62429,0.18652 -1.57115,0.13578 -0.84085,-0.0451 -0.9647,-0.0337 -1.08504,0.0992 -0.14604,0.16138 -0.28929,1.57118 -0.47871,4.71097 -0.0534,0.88477 -0.18902,2.56873 -0.30143,3.74214 -0.11239,1.17342 -0.20437,2.22934 -0.20437,2.34652 0,0.3536 0.2342,0.40248 0.86768,0.18112 0.76962,-0.26893 1.33768,-0.66671 4.13954,-2.89874 2.63436,-2.09858 4.18527,-3.26801 5.11053,-3.85342 0.67433,-0.42667 0.86578,-0.51269 0.92561,-0.41588 0.056,0.0906 -0.2445,0.35892 -1.28545,1.14776 -0.47731,0.3617 -0.86784,0.68538 -0.86784,0.71927 0,0.0339 -0.33337,0.31242 -0.74084,0.61894 -0.40745,0.30652 -1.65889,1.31484 -2.78094,2.24073 -2.68723,2.21738 -3.21859,2.56203 -4.67029,3.02927 -0.46125,0.14846 -0.73034,0.28352 -0.79112,0.3971 -0.0853,0.15938 -0.21751,1.26204 -0.41435,3.45553 -0.0439,0.48895 -0.10009,1.02929 -0.1249,1.20076 -0.0979,0.67649 0.17389,0.89136 1.74144,1.37668 1.21891,0.37739 2.34241,0.46322 3.86846,0.29556 z m 6.41022,-14.72633 c 0.0288,-0.0466 0.0691,-0.0847 0.0897,-0.0847 0.0205,0 0.0373,0.0381 0.0373,0.0847 0,0.0466 -0.0404,0.0847 -0.0897,0.0847 -0.0493,0 -0.0661,-0.0381 -0.0373,-0.0847 z m -26.4047,9.95562 c 0.81171,-0.17181 1.26465,-0.36267 1.41873,-0.59783 0.18481,-0.28204 0.83954,-3.85401 0.84843,-4.62863 0.006,-0.53412 -0.0222,-0.68039 -0.16191,-0.8372 -0.33607,-0.3771 -0.62796,-0.42795 -2.9533,-0.51458 -1.21625,-0.0453 -2.96281,-0.11024 -3.88121,-0.14428 -1.05606,-0.0392 -1.70528,-0.0974 -1.76624,-0.15832 -0.11776,-0.11777 0.3798,-1.91137 0.57524,-2.07357 0.0971,-0.0806 0.72975,-0.0806 2.93168,3e-5 4.49053,0.16444 4.43475,0.16956 4.32154,-0.39645 -0.0293,-0.14637 -0.0295,-0.26613 0,-0.26613 0.029,0 0.38625,0.16986 0.79375,0.37746 0.49117,0.25022 0.92646,0.40493 1.29127,0.45895 0.80273,0.11885 7.86194,0.1272 8.17515,0.01 0.65552,-0.24602 1.11571,-0.73705 1.42773,-1.52339 0.39052,-0.9842 0.90687,-9.46472 0.63572,-10.44117 -0.11829,-0.42594 -0.61967,-0.97236 -1.09457,-1.19291 -0.3684,-0.17107 -0.52522,-0.17778 -4.74136,-0.20282 -4.65234,-0.0276 -5.34139,0.0162 -6.49404,0.41275 -0.26132,0.0899 -0.48347,0.16347 -0.49363,0.16347 -0.0102,0 -0.0401,-0.10804 -0.0665,-0.2401 l -0.048,-0.24009 -4.33684,-0.0562 c -6.23967,-0.0809 -9.3779,-0.0701 -9.75111,0.0335 -0.40137,0.11145 -0.86761,0.51542 -1.08365,0.9389 -0.25346,0.49682 -0.46483,1.55473 -0.68019,3.40441 -0.19207,1.64958 -0.19273,1.68362 -0.0347,1.79915 0.0886,0.0648 0.25856,0.12078 0.37771,0.12445 0.17503,0.005 0.14686,0.0314 -0.1466,0.13521 -0.19979,0.0707 -0.41638,0.21055 -0.48131,0.31081 -0.0649,0.10027 -0.23962,0.73476 -0.3882,1.40997 -0.14857,0.67522 -0.31048,1.30387 -0.35979,1.397 -0.0493,0.0931 -0.11741,0.32174 -0.15133,0.508 -0.0339,0.18627 -0.0901,0.48794 -0.12479,0.6704 -0.0567,0.29805 -0.0393,0.3507 0.17132,0.51866 l 0.23442,0.18692 -0.38297,0.26349 c -0.42582,0.29296 -0.45189,0.34867 -0.94807,2.02593 -0.16934,0.5724 -0.45157,1.42965 -0.62718,1.905 -0.61046,1.6524 -0.60878,1.65603 0.68148,1.46189 1.82948,-0.27527 2.05443,-0.2935 2.62943,-0.21311 1.13827,0.15915 2.56274,0.87945 4.07138,2.05875 1.60921,1.25792 2.51717,1.76801 4.14802,2.33035 2.69733,0.93007 4.73139,1.1886 6.46494,0.82169 z m -1.09092,-10.47041 c -0.14969,-0.0872 -0.20739,-0.33188 -0.0783,-0.33188 0.0384,0 0.15939,0.0953 0.26875,0.21167 0.20836,0.22177 0.10062,0.28977 -0.1905,0.12021 z m -60.19311,0.0505 c 0.11505,-0.14627 0.18305,-0.41046 0.22336,-0.86784 0.21632,-2.45445 0.40406,-3.84256 0.55211,-4.08211 0.0505,-0.0817 0.30446,-0.0638 1.15556,0.0815 1.48563,0.2535 4.57277,0.33905 5.04933,0.13993 0.30617,-0.12793 0.31719,-0.14716 0.31719,-0.55341 0,-1.02699 -0.80946,-3.17432 -2.63307,-6.98491 -0.55417,-1.15801 -1.00759,-2.16258 -1.00759,-2.23237 0,-0.10744 0.0876,-0.11563 0.5715,-0.0535 0.31433,0.0404 1.06854,0.0734 1.67603,0.0734 1.65558,0 1.77331,-0.13683 1.38692,-1.61202 -0.2589,-0.98843 -0.66934,-2.00108 -1.56003,-3.84898 -0.43768,-0.90805 -0.80725,-1.7272 -0.82127,-1.82034 -0.0243,-0.16118 0.0342,-0.17136 1.21455,-0.21166 1.72975,-0.0591 1.76322,-0.0951 1.38847,-1.49381 -0.1161,-0.43335 -0.5483,-1.51422 -0.98179,-2.45533 -1.66831,-3.621872 -1.94526,-4.276872 -2.47573,-5.855142 -0.30206,-0.89868 -0.61648,-1.7083 -0.69871,-1.79917 -0.3197,-0.35326 -0.78722,-0.18403 -1.84234,0.6669 -0.62543,0.50439 -1.26024,1.22609 -4.59804,5.22742 -2.60068,3.117662 -3.03187,3.816782 -2.59406,4.205922 0.0889,0.0791 0.53736,0.188 1.12183,0.27254 0.53552,0.0775 1.00825,0.17489 1.05052,0.2165 0.0914,0.09 0.16706,-0.0107 -1.38802,1.84756 -0.67586,0.80761 -1.48861,1.77916 -1.80612,2.159 -0.70247,0.84035 -1.3917,1.93362 -1.46486,2.32357 -0.0951,0.50685 0.0707,0.58479 1.70605,0.80181 0.94396,0.12528 1.43676,0.2251 1.43676,0.29104 0,0.14112 -2.29239,2.9903 -3.42687,4.25919 -1.25968,1.40897 -2.22096,2.68891 -2.6303,3.5023 -0.35112,0.69769 -0.41581,1.0667 -0.21605,1.23249 0.11993,0.0995 1.23928,0.25297 4.65762,0.6385 1.02065,0.11511 1.89074,0.24431 1.93354,0.28711 0.0473,0.0473 0.0251,0.4092 -0.0566,0.92297 -0.17709,1.11388 -0.17843,2.82452 -0.003,3.34054 0.16132,0.47349 0.63128,0.96391 1.13155,1.18084 0.55077,0.23884 1.53685,0.3937 2.56169,0.40232 0.86613,0.007 0.91095,-0.001 1.06942,-0.20267 z m 186.51946,0.076 c 1.24015,-0.25523 1.90465,-0.70289 2.17296,-1.46383 0.17438,-0.49456 0.17165,-2.0275 -0.006,-3.24116 -0.086,-0.58809 -0.10672,-0.96278 -0.0561,-1.01337 0.0442,-0.0442 1.48823,-0.24471 3.20905,-0.44569 1.72082,-0.20098 3.21292,-0.41046 3.31579,-0.4655 0.12529,-0.0671 0.18702,-0.1792 0.18702,-0.33975 0,-0.63982 -1.25058,-2.48085 -3.05389,-4.49573 -0.73314,-0.81914 -2.45222,-2.91222 -3.32341,-4.04642 -0.0502,-0.0654 -0.0531,-0.13891 -0.007,-0.18271 0.0423,-0.0403 0.70158,-0.15217 1.46513,-0.24857 1.89081,-0.23872 1.96814,-0.32138 1.35419,-1.4478 -0.41284,-0.75747 -0.72495,-1.16106 -2.80208,-3.62335 -0.87526,-1.03758 -1.5914,-1.92115 -1.5914,-1.9635 0,-0.1344 0.13677,-0.17208 1.11656,-0.30761 1.3287,-0.1838 1.44553,-0.31654 1.03756,-1.17892 -0.26748,-0.5654 -0.73399,-1.19664 -1.65628,-2.241112 -0.39066,-0.44238 -1.37441,-1.62348 -2.18616,-2.62467 -2.43064,-2.99788 -4.03249,-4.48733 -4.82602,-4.48733 -0.32829,0 -0.36659,0.0763 -1.0662,2.12508 -0.52052,1.52433 -0.81461,2.21534 -2.41059,5.664242 -0.67202,1.45228 -1.0614,2.53152 -1.14573,3.17564 -0.0483,0.36931 -0.0315,0.44573 0.13076,0.59267 0.16416,0.14869 0.33081,0.17215 1.40517,0.1978 1.0893,0.026 1.21893,0.0447 1.21893,0.17603 0,0.0808 -0.39573,0.98209 -0.87938,2.00288 -0.93688,1.9773 -1.31721,2.95595 -1.58495,4.07824 -0.18075,0.7577 -0.14745,0.94772 0.19853,1.13289 0.28356,0.15176 1.64899,0.19313 2.56566,0.0777 0.56057,-0.0705 0.8475,-0.0757 0.90688,-0.0163 0.0594,0.0594 -0.28996,0.87204 -1.10418,2.56849 -1.44998,3.0211 -1.89275,4.09022 -2.20944,5.33508 -0.36821,1.44726 -0.3777,1.53668 -0.18815,1.77058 l 0.16366,0.20196 1.89118,-8e-4 c 1.58176,-7.9e-4 2.08242,-0.0329 3.06002,-0.19699 0.86303,-0.14482 1.19829,-0.1717 1.28143,-0.10269 0.13264,0.11006 0.33232,1.37386 0.51553,3.26258 0.15247,1.57167 0.18063,1.71139 0.36683,1.82014 0.22107,0.1291 1.82047,0.0987 2.53412,-0.0481 z m -28.56286,-8.27944 c 0.96529,-0.44599 1.94388,-1.12777 2.85099,-1.98624 0.91036,-0.86158 1.0914,-1.1224 0.92131,-1.32734 -0.097,-0.11689 -0.39135,-0.13059 -2.33508,-0.10871 -2.09307,0.0236 -2.23783,0.0353 -2.45769,0.1996 -0.47273,0.35325 -0.58058,0.59009 -0.61215,1.34453 -0.0309,0.73797 0.0979,1.81166 0.25172,2.09913 0.12561,0.23471 0.53721,0.16885 1.3809,-0.22097 z m -119.37466,-6.782 c 1.01344,-0.006 1.24059,-0.0326 1.56633,-0.18352 0.43992,-0.20376 0.94425,-0.6848 1.23344,-1.17652 0.24583,-0.41796 0.82221,-1.94722 0.96749,-2.56691 0.12448,-0.53095 0.5142,-1.02799 0.80601,-1.02799 0.23158,0 1.18339,0.98895 1.3664,1.41972 0.36579,0.86097 2.06656,2.89232 2.73866,3.27094 0.43852,0.24704 0.51258,0.2614 1.27,0.24622 0.44239,-0.009 1.20174,0.0194 1.68744,0.0628 0.73011,0.0652 0.90643,0.0578 1.01768,-0.0429 0.10351,-0.0937 0.21233,-0.10375 0.47156,-0.0437 0.44686,0.1036 1.5826,0.10335 1.85548,0 0.44604,-0.16959 0.27123,-0.40661 -1.37032,-1.85785 -0.38418,-0.33964 -0.6985,-0.65158 -0.6985,-0.69321 0,-0.26768 0.75659,0.25211 2.0606,1.41564 0.41153,0.36721 0.90497,0.77243 1.09651,0.90049 l 0.34826,0.23283 h 1.67903 c 1.82789,0 2.0834,-0.0493 2.5492,-0.49132 0.31266,-0.29676 0.51697,-0.70215 0.69362,-1.37642 0.11758,-0.44875 0.13523,-0.80752 0.0997,-2.02692 -0.0623,-2.139 -0.54014,-4.84878 -1.70196,-9.651992 -0.20839,-0.86149 -0.48106,-2.06164 -0.60593,-2.667 -0.38907,-1.88608 -0.81807,-2.74173 -1.50437,-3.00048 -0.39206,-0.1478 -1.48938,-0.10568 -2.22222,0.0853 -1.23934,0.32299 -1.93268,0.594809 -3.55078,1.39206 -1.77433,0.874229 -2.92093,1.56771 -4.14956,2.509659 -3.11183,2.38579 -5.45931,3.45674 -8.67745,3.958781 -1.5008,0.234112 -2.90129,0.357142 -2.99555,0.263132 -0.0878,-0.0876 0.11457,-0.12572 1.59854,-0.301012 2.24405,-0.26509 4.03245,-0.759731 5.59643,-1.54786 0.46104,-0.23234 1.60026,-0.93889 2.53159,-1.570121 0.93133,-0.63123 2.25234,-1.52607 2.93559,-1.988529 1.32205,-0.89486 3.0452,-1.81496 4.43113,-2.366061 1.87289,-0.74472 2.99825,-0.993619 3.85616,-0.852869 0.65524,0.10751 0.84212,0.047 0.84212,-0.27283 0,-0.14223 -0.43394,-1.751231 -0.96434,-3.57556 -0.53037,-1.824341 -1.04749,-3.71701 -1.14914,-4.20596 -0.10164,-0.488951 -0.58033,-2.089151 -1.06376,-3.556 -0.48344,-1.46685 -0.94091,-2.983951 -1.01662,-3.371314 -0.17918,-0.916692 -0.52764,-2.123501 -0.68287,-2.364851 -0.1678,-0.26093 -0.44429,-0.24192 -1.07352,0.0738 -1.12923,0.566581 -2.52319,1.580081 -3.77222,2.742645 -0.34144,0.31781 -0.73072,0.63803 -0.86506,0.71162 -0.68459,0.37495 -3.32565,2.91037 -5.08149,4.87819 -1.67455,1.87674 -1.94165,2.218819 -1.94165,2.48679 0,0.134159 0.25148,0.80292 0.55884,1.486149 0.30735,0.683221 0.53716,1.263881 0.51067,1.290351 -0.0265,0.0265 -0.37537,-0.2332 -0.7753,-0.5771 -1.02693,-0.883031 -1.26462,-1.03607 -1.51256,-0.97384 -0.11446,0.0287 -0.54171,0.42184 -0.95386,0.87764 -2.6209,2.89851 -5.20476,5.26456 -7.12905,6.52811 -0.80082,0.52585 -2.54879,1.42796 -2.84897,1.47032 -0.42611,0.0601 -0.16079,-0.18656 0.68566,-0.63755 1.17844,-0.627881 2.29743,-1.384361 3.42119,-2.31284 0.99467,-0.82184 5.74492,-5.56099 6.07703,-6.06284 0.28559,-0.43155 0.19637,-0.61171 -0.54565,-1.10186 -0.7533,-0.4976 -1.31241,-0.77459 -2.09128,-1.03605 -0.77349,-0.25965 -0.994,-0.26431 -1.47563,-0.0312 -0.78235,0.37873 -1.13298,1.31271 -1.3753,3.66336 -0.0908,0.88066 -0.18534,1.6215 -0.21013,1.64628 -0.0248,0.0248 -0.11605,-0.029 -0.20279,-0.11955 -0.20928,-0.21845 -4.60156,-7.58439 -5.5507,-9.30862 -0.41013,-0.74508 -1.02723,-1.77968 -1.37133,-2.29914 -0.35755,-0.53977 -0.67186,-1.120237 -0.73353,-1.354665 -0.21426,-0.814502 -0.71888,-1.353212 -0.95923,-1.024031 -0.0425,0.0582 -0.24381,0.620181 -0.44732,1.248831 -0.20352,0.628655 -0.41771,1.200155 -0.47597,1.270005 -0.0583,0.0699 -0.36378,0.7747 -0.67894,1.56632 -1.38986,3.49123 -3.16694,6.38761 -4.88109,7.9555 -0.62438,0.5711 -2.00733,1.56951 -2.17402,1.56951 -0.18963,0 -0.0792,-0.16977 0.26838,-0.41254 0.39881,-0.27857 1.79136,-1.680171 2.324,-2.33913 0.94304,-1.16665 2.3704,-3.65942 3.29612,-5.75634 0.62206,-1.40947 0.87805,-2.09819 0.87805,-2.3627 0,-0.21459 0.96936,-3.013946 1.20136,-3.469325 0.22489,-0.441441 0.15763,-0.6327 -0.40257,-1.14469 -0.75963,-0.694251 -1.50457,-0.829411 -2.59093,-0.470091 -0.39112,0.12936 -3.93227,2.19042 -4.23658,2.465811 -0.0868,0.0786 -0.20579,0.24052 -0.26438,0.3599 -0.0853,0.173839 -0.16001,0.212838 -0.3752,0.195939 -0.27254,-0.0214 -1.12537,0.443252 -2.3461,1.278276 -0.28083,0.19209 -0.7676,0.48311 -1.08171,0.6467 -0.78601,0.40937 -2.03269,1.30166 -2.62292,1.87729 -0.66861,0.65209 -0.94132,1.25128 -0.98242,2.15859 -0.0386,0.85181 0.11811,1.44032 0.55751,2.094 0.35956,0.53489 4.26867,4.82819 4.58466,5.03523 0.11274,0.0739 0.37967,0.15441 0.59318,0.17899 0.38685,0.0445 0.38811,0.0457 0.36187,0.3482 -0.0257,0.29672 0.027,0.35441 2.36061,2.58233 1.31281,1.25335 2.42962,2.32828 2.48178,2.38874 0.47072,0.54555 1.9364,1.95974 2.07749,2.00453 0.0985,0.0313 0.25919,0.21602 0.35698,0.41055 0.0978,0.19452 0.29103,0.46798 0.42942,0.60768 0.1384,0.1397 0.46454,0.51382 0.72475,0.83141 0.2602,0.31757 0.61878,0.65173 0.79682,0.74254 0.24209,0.12351 0.32371,0.21743 0.32371,0.37248 0,0.26421 0.28126,0.806442 0.54857,1.057572 0.1136,0.10672 0.52011,0.72435 0.90334,1.37252 0.44336,0.74985 0.78334,1.22961 0.93477,1.31906 0.18057,0.10667 0.23799,0.20479 0.23799,0.40667 0,0.14636 0.20359,0.81442 0.45244,1.48458 0.65301,1.75862 0.63473,1.70596 1.02777,2.95899 0.19803,0.63129 0.43701,1.32174 0.53104,1.53435 0.24342,0.55029 0.7217,1.04303 1.27714,1.31577 l 0.47927,0.23533 3.21736,0.0613 c 1.76954,0.0337 3.63644,0.0739 4.14868,0.0894 0.51224,0.0154 1.00755,0.009 1.10068,-0.0145 0.0931,-0.0234 0.70273,-0.0457 1.35468,-0.0496 z m -5.96904,-10.96627 c -0.0986,-0.0637 -0.0738,-0.0824 0.11083,-0.0834 0.13725,-8e-4 0.2157,0.0345 0.1855,0.0834 -0.065,0.10512 -0.13366,0.10512 -0.29633,0 z m 36.40433,10.96649 c 0.11104,-0.1005 0.2019,-0.10718 0.466,-0.0343 0.20322,0.0561 1.02885,0.0795 2.16979,0.0613 1.70266,-0.027 1.85938,-0.0424 2.07545,-0.2038 0.47263,-0.35303 0.57038,-0.57462 0.6089,-1.38026 l 0.0359,-0.75128 -0.31804,-0.35202 c -0.17493,-0.19362 -0.30317,-0.36349 -0.28499,-0.3775 0.0182,-0.014 0.15559,-0.0743 0.30539,-0.13387 0.14979,-0.0596 0.2947,-0.17882 0.32203,-0.26489 0.0273,-0.0861 0.16485,-0.25344 0.30564,-0.37191 l 0.25598,-0.21537 h 2.15808 c 1.30903,0 2.22174,0.0341 2.3199,0.0866 0.27528,0.14733 0.3399,0.3844 0.45857,1.68302 0.12549,1.37317 0.22066,1.65801 0.65836,1.9702 l 0.27645,0.19717 4.70466,0.0232 4.70463,0.0232 0.29072,-0.19367 c 0.48836,-0.32531 0.58648,-0.64559 0.67311,-2.19701 0.10361,-1.8556 0.10216,-3.26194 -0.004,-3.45952 -0.0636,-0.11893 -0.0467,-0.28145 0.0635,-0.60827 0.17317,-0.51356 0.17316,-0.5129 0.0575,-6.339532 -0.0816,-4.11074 -0.0935,-4.22409 -0.44413,-4.22409 -0.0744,0 -0.45119,0.32975 -0.83733,0.73276 -0.38614,0.40301 -0.72578,0.70904 -0.75476,0.68007 -0.029,-0.029 0.21146,-0.44444 0.53429,-0.92326 0.98712,-1.46405 1.29873,-2.51059 1.29806,-4.35949 -7.9e-4,-2.31599 -0.36847,-6.28341 -0.62889,-6.78701 -0.0904,-0.17483 -0.10184,-0.32052 -0.0445,-0.56763 0.2251,-0.9706 -0.15223,-4.00132 -0.62935,-5.05493 -0.068,-0.15006 -0.14884,-0.40618 -0.17975,-0.56917 -0.13285,-0.700676 -1.92438,-7.157557 -2.23634,-8.060064 -0.73815,-2.135502 -1.81214,-4.602472 -2.993,-6.874994 -0.62141,-1.19589 -0.81834,-1.44426 -1.00058,-1.26201 -0.0536,0.0536 -0.20397,0.56709 -0.33414,1.14109 -0.563,2.482472 -1.82146,6.572282 -2.74402,8.917652 -0.56651,1.440219 -1.59285,3.52598 -2.41637,4.910661 -0.65686,1.104455 -0.79505,1.275195 -2.02502,2.502225 -1.04664,1.04412 -1.53708,1.46157 -2.36786,2.0154 -2.29456,1.52964 -4.68111,2.4574 -7.30428,2.83951 -1.0216,0.14882 -3.20908,0.32929 -3.26869,0.26968 -0.0533,-0.0533 0.0261,-0.0702 2.24573,-0.47583 2.7778,-0.50768 3.91855,-0.84251 5.39309,-1.58298 1.94869,-0.97858 4.16395,-2.6536 4.71632,-3.56614 0.10272,-0.1697 0.36639,-0.50764 0.58594,-0.75098 0.87679,-0.971887 2.32431,-3.571606 3.10129,-5.569877 0.81887,-2.10602 3.05922,-8.9373 3.41498,-10.413008 0.21117,-0.875919 0.21079,-1.667793 -0.001,-2.13437 -0.52614,-1.158933 -3.34092,-2.979682 -6.5087,-4.210169 -1.46266,-0.568161 -1.75519,-0.625382 -2.24368,-0.43883 -0.28582,0.109157 -0.47534,0.123767 -0.8827,0.0681 -1.29761,-0.177459 -3.88897,0.46447 -5.56664,1.378971 -3.6039,1.964478 -6.47371,6.22482 -7.91766,11.754048 -0.66767,2.556661 -0.95595,4.902401 -1.10689,9.006545 -0.11495,3.12521 -0.0891,3.77829 0.15945,4.02682 l 0.17636,0.17636 -0.18013,0.31299 c -0.17805,0.30935 -0.17861,0.32559 -0.0484,1.39887 0.13388,1.10376 0.20331,1.26814 0.60006,1.42059 0.0687,0.0264 0.0374,0.0898 -0.0911,0.18455 -0.39717,0.29268 -0.39577,0.40955 0.0388,3.25477 0.34948,2.28799 0.43336,2.69367 0.59719,2.88837 0.16771,0.19932 0.18506,0.29143 0.14448,0.76714 -0.0561,0.65733 0.46761,3.39036 0.69851,3.6455 0.16933,0.18711 0.43687,0.19313 1.38384,0.0311 1.22188,-0.20901 2.75953,-0.31376 4.61433,-0.31432 2.67625,-8e-4 4.62507,0.21068 6.01135,0.65236 0.37254,0.1187 0.76307,0.19448 0.86784,0.16843 0.24985,-0.0621 0.24837,-0.2375 -0.0258,-3.09215 -0.18914,-1.96959 -0.38553,-4.79859 -0.39379,-5.67267 -0.007,-0.71515 0.18891,-3.7069 0.25766,-3.93941 0.35045,-1.18541 1.21,-1.72442 2.16703,-1.35893 0.4525,0.17281 1.00808,0.75288 1.24555,1.30041 0.0953,0.21978 0.30222,0.99015 0.45976,1.71193 0.15757,0.72179 0.38336,1.63383 0.50177,2.02677 0.33675,1.11744 1.12545,6.40795 1.19997,8.04929 0.0469,1.03222 0.0372,1.15604 -0.0992,1.27 -0.1053,0.088 -0.51321,0.15194 -1.34564,0.21094 -1.13337,0.0803 -1.19589,0.0941 -1.22088,0.26969 -0.0242,0.16966 0.10237,0.22693 1.524,0.68992 2.86404,0.93272 4.57277,1.24957 6.33404,1.17455 0.5821,-0.0248 1.306,-0.10964 1.60868,-0.18855 0.79947,-0.20841 1.98083,-0.79503 2.70306,-1.34225 0.34579,-0.262 0.66144,-0.47636 0.70148,-0.47636 0.26767,0 -0.63621,0.84957 -1.47178,1.38333 -1.6324,1.04277 -4.35738,1.18442 -7.59178,0.39461 -0.5654,-0.13806 -2.27617,-0.63126 -3.8017,-1.09597 -3.47517,-1.05865 -4.08303,-1.21963 -5.65422,-1.49739 -1.11825,-0.19769 -1.5534,-0.22867 -3.68115,-0.26209 -2.63839,-0.0414 -5.10001,0.0652 -5.62919,0.24389 -0.60419,0.20398 -0.62616,0.46729 -0.17901,2.14382 0.1239,0.46449 0.33568,1.41699 0.47065,2.11667 0.13495,0.699662 0.36096,1.814212 0.50221,2.476782 0.14125,0.66255 0.31438,1.64347 0.38471,2.17979 0.0703,0.53633 0.18611,1.08772 0.25726,1.22531 0.0898,0.17358 0.1299,0.50411 0.13109,1.07986 0.003,1.34207 0.22494,3.62521 0.38567,3.9639 0.17473,0.36823 0.48995,0.59994 0.97621,0.71761 0.20462,0.0495 1.3817,0.12102 2.61572,0.15888 1.23403,0.0379 2.27878,0.0749 2.32168,0.0822 0.0429,0.007 0.14007,-0.0428 0.21595,-0.11142 z m 35.13917,-0.007 c 1.21059,-0.0634 1.43644,-0.13195 1.81475,-0.5507 0.50963,-0.5641 0.42165,-0.69843 -0.96809,-1.4782 -1.08545,-0.60903 -1.12854,-0.63949 -1.03589,-0.73214 0.054,-0.0541 0.44212,0.0972 1.11589,0.43496 1.04243,0.52256 1.27984,0.56889 1.40554,0.27429 0.034,-0.0797 0.0765,-0.97343 0.0944,-1.98603 0.0179,-1.0126 0.0698,-1.93899 0.11532,-2.05867 0.0455,-0.11968 0.0827,-0.36871 0.0827,-0.55341 0,-0.39747 0.1381,-0.48371 0.52077,-0.32521 0.63289,0.26216 0.90395,0.64498 1.28518,1.81504 0.34954,1.07275 0.4059,1.43222 0.46722,2.97999 0.051,1.28727 0.0781,1.48351 0.23338,1.69334 0.3725,0.50325 0.16025,0.48666 6.25645,0.48911 5.52059,0.002 5.59268,6e-5 5.97679,-0.17759 0.81076,-0.375 0.96812,-0.8397 1.04295,-3.07985 0.091,-2.72435 -0.13751,-3.89466 -0.76045,-3.89466 -0.24404,0 -0.25436,-0.0707 -0.0598,-0.40978 0.13638,-0.23763 0.13676,-0.27328 0.006,-0.54789 -0.077,-0.16156 -0.37621,-0.54616 -0.66482,-0.85468 -0.50015,-0.53466 -1.06833,-0.88323 -2.1327,-1.30836 -0.12805,-0.0511 -0.23283,-0.14659 -0.23283,-0.21208 0,-0.0655 0.10478,-0.18669 0.23283,-0.26934 0.60143,-0.38814 2.77285,-2.196531 3.50282,-2.917211 1.08501,-1.0712 1.71182,-1.9457 2.47613,-3.45466 1.21077,-2.39038 2.67821,-5.94928 2.67821,-6.49531 0,-0.202731 0.096,-0.574241 0.221,-0.85566 0.83352,-1.87593 1.17381,-5.733401 0.92893,-10.530356 -0.19795,-3.878119 -0.29935,-4.904251 -0.56686,-5.73682 -0.16021,-0.498591 -0.28783,-0.496289 -1.57534,0.0284 -1.74848,0.71256 -2.75043,1.21964 -3.87605,1.961629 -1.94568,1.282571 -3.53916,2.54032 -5.37634,4.243591 -0.53551,0.496486 -1.14013,1.010456 -1.3436,1.142156 -0.63026,0.40798 -2.44637,2.2348 -2.55804,2.57315 -0.0937,0.28407 -0.0755,0.34678 0.32457,1.11361 0.23315,0.44692 0.53065,1.136439 0.6611,1.532259 0.2095,0.635631 0.23761,0.84818 0.2408,1.82033 0.004,1.287581 -0.11234,1.806961 -0.665,2.96334 -0.45746,0.95718 -0.84061,1.48749 -1.41546,1.959141 -0.83673,0.686499 -1.92332,1.02506 -2.94489,0.91755 -0.46194,-0.0486 -0.58811,-0.0994 -0.81791,-0.3292 -0.3668,-0.3668 -0.41104,-0.74279 -0.28095,-2.38777 0.0585,-0.73978 0.10968,-1.53556 0.11372,-1.76839 0.0123,-0.71152 -0.16539,-0.64066 -1.61191,0.6427 -1.64727,1.46146 -4.01502,3.43732 -5.03469,4.20139 -2.23545,1.67507 -4.29986,2.6184 -6.80807,3.11094 -1.49542,0.29366 -1.48166,0.27722 -1.48166,1.77017 0,0.7874 0.0328,1.16704 0.11012,1.27272 0.0924,0.12635 0.40252,0.17672 1.92617,0.31281 4.99369,0.44604 7.1468,1.2844 12.83343,4.996941 1.82879,1.19392 3.33732,1.99091 4.41022,2.32998 0.40905,0.12928 0.77992,0.26541 0.82415,0.30252 0.15264,0.12807 -0.33779,0.0669 -1.05469,-0.13157 -1.90965,-0.52862 -3.49644,-1.398 -6.40252,-3.50781 -0.6113,-0.4438 -1.46607,-1.00991 -1.89948,-1.25802 -2.48042,-1.419922 -5.72484,-2.274172 -9.30971,-2.451212 -1.05178,-0.052 -1.15211,-0.0439 -1.27829,0.1027 -0.11931,0.1386 -0.14355,0.60038 -0.18836,3.588072 -0.0399,2.66072 -0.0277,3.47642 0.0545,3.64066 0.10106,0.2019 0.15274,0.21467 1.1197,0.27665 1.09279,0.0701 1.2254,0.0948 1.2254,0.2287 0,0.0551 -0.37156,0.0873 -1.00662,0.0873 -1.3571,0 -1.38789,0.0244 -1.45787,1.15663 -0.0706,1.14196 0.11157,2.56663 0.38863,3.03941 0.25909,0.4421 0.73002,0.85993 1.20701,1.07093 0.33535,0.14834 0.64949,0.16608 3.59941,0.20327 1.77759,0.0224 3.2525,0.0614 3.27755,0.0867 0.0251,0.0253 0.27416,0.0245 0.55356,-0.002 0.2794,-0.0262 0.94615,-0.0707 1.48166,-0.0987 z m -7.0485,-5.26076 c -0.0815,-0.0213 -0.14817,-0.0931 -0.14817,-0.15951 0,-0.14332 0.35699,-0.16228 0.60059,-0.0319 0.32298,0.17285 0,0.30957 -0.45242,0.19139 z m 18.36828,-0.45827 c -1.33837,-0.0915 -0.96496,-0.20271 0.70744,-0.21071 0.88226,-0.004 1.60411,0.0244 1.60411,0.0635 0,0.0391 -0.0286,0.0745 -0.0635,0.0785 -0.67901,0.0788 -1.6608,0.10881 -2.24805,0.0687 z m 22.02018,5.56528 c 0.19926,-0.0871 0.39663,-0.22249 0.43859,-0.3009 0.15129,-0.28267 -0.031,-0.37093 -0.81419,-0.39411 -1.66048,-0.0492 -2.94365,-0.80395 -4.36188,-2.56573 -0.7145,-0.8876 -1.19778,-1.62541 -2.14161,-3.26958 -0.91337,-1.59112 -1.35415,-2.24382 -2.10214,-3.11291 -0.60076,-0.698 -1.10131,-1.07809 -1.41977,-1.07809 -0.1983,0 -0.25477,0.0553 -0.36753,0.35984 -0.2115,0.57119 -0.64278,2.75489 -0.64278,3.25459 0,0.25025 -0.0583,0.59463 -0.12962,0.76525 -0.0713,0.17062 -0.16809,0.69329 -0.21511,1.16145 -0.047,0.46817 -0.12174,1.07981 -0.16607,1.35921 -0.11965,0.75427 -0.0988,1.9019 0.0432,2.38016 0.15908,0.53575 0.60929,1.06311 1.12395,1.31656 0.37903,0.18666 0.52258,0.20067 2.5186,0.24579 1.16417,0.0263 3.41207,0.0454 4.99534,0.0423 2.61921,-0.005 2.91132,-0.0198 3.24097,-0.16386 z m 19.12668,0.026 c 0.62503,-0.23616 0.85167,-0.68256 1.2868,-2.53463 0.41725,-1.77597 0.5845,-2.33474 1.02621,-3.42884 0.7969,-1.97386 0.93237,-2.26082 1.23235,-2.61039 0.16665,-0.1942 0.46049,-0.67043 0.65297,-1.0583 0.23405,-0.47155 0.42511,-0.74402 0.57665,-0.8224 0.12467,-0.0645 0.30142,-0.24242 0.39279,-0.39546 0.2158,-0.361442 1.46432,-1.922252 2.356,-2.945271 0.83189,-0.95441 2.33414,-2.42872 3.66542,-3.59724 1.65313,-1.45101 1.74513,-1.675651 0.94483,-2.3072 -0.92611,-0.73082 -1.05735,-0.85095 -0.99756,-0.91313 0.0897,-0.0933 0.46101,0.0828 1.17079,0.55515 0.34711,0.231 0.72055,0.42009 0.82985,0.42021 0.13617,0 0.46952,-0.25906 1.05834,-0.82296 2.53941,-2.43184 3.45471,-3.34561 3.5411,-3.53521 0.0527,-0.1157 0.16525,-0.232381 0.25008,-0.25931 0.26802,-0.0851 3.14081,-3.236771 3.54693,-3.8913 0.17234,-0.27776 0.20973,-0.44528 0.2079,-0.931341 -0.003,-0.69122 -0.12571,-0.97023 -0.69807,-1.58212 -0.59075,-0.63155 -3.67251,-2.778189 -3.98844,-2.778189 -0.0382,0 -0.23138,-0.11725 -0.42921,-0.26056 -0.65499,-0.47448 -2.46841,-1.607985 -5.13305,-3.208503 -3.02344,-1.816023 -3.27142,-1.91802 -4.43298,-1.823151 -0.71001,0.058 -1.02168,0.187301 -1.02168,0.42391 0,0.0554 -0.31433,0.293288 -0.6985,0.528598 -0.91022,0.55748 -2.28819,1.5929 -2.37646,1.785681 -0.0381,0.0832 -0.22862,0.195008 -0.42335,0.248401 -0.21882,0.06 -0.6612,0.342948 -1.15836,0.740918 -1.19905,0.959856 -1.81619,1.223476 -2.28139,0.974496 -0.28879,-0.15455 -0.68194,-1.516143 -0.68194,-2.361735 0,-0.22048 -0.0367,-0.437571 -0.0816,-0.482431 -0.0449,-0.0449 -0.12237,-0.443 -0.17224,-0.884769 -0.0539,-0.477359 -0.2077,-1.146649 -0.37918,-1.649852 -0.15868,-0.465669 -0.32698,-1.154766 -0.37399,-1.531329 -0.0988,-0.79185 -0.51061,-2.14209 -0.87241,-2.860781 -0.34912,-0.693486 -0.95593,-1.27155 -1.69805,-1.617609 -0.33746,-0.157369 -2.02326,-0.87425 -3.74623,-1.59308 -2.4666,-1.029089 -3.23632,-1.315358 -3.62015,-1.346441 -0.33143,-0.0268 -0.54826,-0.0949 -0.67734,-0.212519 -0.22521,-0.20529 -1.59604,-0.725749 -2.28534,-0.86768 -0.96315,-0.198311 -1.85042,0.173238 -2.55672,1.07065 -0.53468,0.679371 -1.32256,2.263949 -1.68849,3.3959 -0.33445,1.034579 -0.35381,1.184288 -0.206,1.593048 0.0936,0.258781 0.0814,0.295672 -0.20024,0.607454 -0.20022,0.221608 -0.33554,0.483767 -0.40715,0.788826 -0.059,0.251291 -0.34514,1.333191 -0.63588,2.404224 -0.29073,1.071037 -0.55682,2.077499 -0.5913,2.236598 -0.0345,0.159122 -0.13138,0.402221 -0.21532,0.540242 -0.0839,0.138007 -0.13479,0.297368 -0.11301,0.354121 0.0218,0.0567 -0.0908,0.53753 -0.25014,1.068427 -0.15935,0.530913 -0.33753,1.174826 -0.39593,1.430946 -0.0584,0.25612 -0.15619,0.52326 -0.21728,0.59365 -0.17799,0.20506 -0.6191,1.6131 -0.67743,2.16242 -0.0295,0.27784 -0.12503,0.60564 -0.21307,0.73121 -0.17809,0.25404 -2.44821,7.50069 -2.44821,7.81521 0,0.29101 0.32778,0.50497 1.12127,0.73191 0.64082,0.18327 0.85069,0.19948 2.5194,0.19457 2.04931,-0.006 2.25105,-0.0351 8.21266,-1.18358 4.93216,-0.95017 6.80586,-1.21417 9.94834,-1.40169 2.40781,-0.14367 5.56828,-0.003 5.83087,0.25964 0.0583,0.0583 -0.41798,0.069 -1.47543,0.0331 -1.56725,-0.0531 -5.15559,0.0673 -6.89544,0.23139 -1.51209,0.14258 -3.59863,0.47322 -5.58836,0.88549 -5.07511,1.0516 -7.03044,1.38341 -9.22831,1.56598 -1.35007,0.11214 -2.48048,0.0332 -3.71152,-0.25938 -0.97342,-0.23129 -1.04267,-0.19079 -1.34592,0.78743 -0.12274,0.39587 -0.20166,0.80187 -0.17541,0.90226 0.0306,0.11718 -0.0138,0.24924 -0.12411,0.36895 -0.14863,0.16126 -1.12007,3.19993 -1.12005,3.50355 10e-6,0.0549 0.0578,0.15756 0.1284,0.22818 0.10653,0.10651 0.43458,0.12878 1.92617,0.13072 2.54448,0.003 4.94964,0.23287 7.66407,0.73148 3.46439,0.63639 5.77363,1.44185 8.2307,2.87091 0.62865,0.36562 1.32242,0.74801 1.54169,0.84977 0.6855,0.318061 0.85801,0.550151 0.40894,0.550151 -0.14586,0 -0.32015,0.0746 -0.41678,0.17827 -0.38069,0.4086 -1.68649,4.0836 -2.07262,5.83306 -0.66802,3.02655 -0.45702,4.15112 0.8677,4.62453 0.39896,0.14257 9.68648,0.16727 10.05839,0.0267 z m -18.5651,-0.92215 c 0.18217,-0.0422 0.44231,-0.18792 0.57809,-0.32371 0.22695,-0.22693 0.26013,-0.34196 0.41093,-1.42398 0.0902,-0.64741 0.14193,-1.27943 0.11488,-1.40448 -0.0291,-0.13479 0.002,-0.30718 0.0757,-0.42334 0.0687,-0.10778 0.30055,-0.91048 0.51521,-1.78379 0.46166,-1.87804 1.52678,-5.002852 1.68713,-4.949572 0.0399,0.0132 0.28753,0.567552 0.55033,1.231782 0.2628,0.66424 0.58422,1.33917 0.71426,1.49983 0.20949,0.25882 0.28188,0.29195 0.635,0.29059 0.48039,-0.002 0.87442,-0.20587 2.2173,-1.14807 1.94473,-1.36445 1.93134,-1.34974 1.57067,-1.726192 -0.13558,-0.14153 -0.42026,-0.33843 -0.63262,-0.43761 -0.21237,-0.0992 -0.92172,-0.43971 -1.57633,-0.75675 -3.27865,-1.58791 -5.88935,-2.36429 -9.49637,-2.82403 -1.64556,-0.20976 -3.69122,-0.31741 -5.47109,-0.28794 l -1.67967,0.0278 -0.19304,0.22461 c -0.11078,0.12892 -0.25402,0.48965 -0.33619,0.84668 -0.0787,0.34213 -0.17558,0.68274 -0.2152,0.75692 -0.15009,0.28092 -0.51396,1.94843 -0.45001,2.0622 0.0365,0.065 0.35219,0.30485 0.70144,0.533012 1.06976,0.69886 2.21258,2.08105 3.13301,3.78925 0.84159,1.56183 1.94262,3.2952 2.57558,4.05475 0.47542,0.57049 1.39807,1.33468 1.9966,1.6537 0.52538,0.28001 1.55949,0.58806 1.98914,0.59252 0.1397,10e-4 0.40305,-0.0319 0.58522,-0.0742 z m -42.8938,-16.305531 c 2.04126,-0.40852 4.48367,-1.58448 6.90879,-3.32645 1.28655,-0.92412 2.81989,-2.27411 4.81311,-4.23755 2.14061,-2.10867 2.18014,-2.16256 2.18004,-2.9734 -4e-5,-0.20955 -0.0529,-0.48234 -0.11755,-0.60621 -0.10363,-0.19861 -0.0994,-0.25499 0.036,-0.47759 0.0844,-0.13882 0.19364,-0.27721 0.24272,-0.307541 0.0491,-0.0303 0.12742,-0.197 0.17411,-0.370369 0.23307,-0.86559 0.88526,-1.42025 1.91968,-1.63261 0.48921,-0.100441 0.53143,-0.0961 0.75225,0.0776 0.32656,0.25686 0.70052,0.2332 1.16377,-0.0737 0.45546,-0.30168 1.92602,-1.81302 1.92602,-1.97943 0,-0.20758 3.40265,-3.551644 4.52966,-4.451674 2.10666,-1.682356 4.23423,-2.92798 6.73099,-3.94076 1.07025,-0.434128 1.27,-0.566547 1.27,-0.841949 0,-0.215027 -1.01738,-3.455609 -1.18312,-3.768511 -0.0617,-0.116419 -0.18264,-0.30253 -0.26883,-0.413586 -0.0862,-0.111053 -0.15671,-0.284522 -0.15671,-0.385474 0,-0.867518 -3.96263,-6.566916 -4.5658,-6.566916 -0.10333,0 -0.37371,0.347136 -0.77483,0.994828 -0.22733,0.367059 -0.38027,0.529172 -0.49921,0.529172 -0.2187,0 -0.21896,0.003 0.0825,-0.889 0.29101,-0.860933 0.32269,-1.310214 0.10583,-1.501373 -0.19768,-0.17427 -1.12438,-0.63437 -1.75573,-0.871701 -0.28,-0.105259 -1.20783,-0.33165 -2.06184,-0.50309 -0.85403,-0.171428 -1.70793,-0.36645 -1.89758,-0.433361 -0.22766,-0.0803 -0.48522,-0.103039 -0.75804,-0.0668 -0.30006,0.0398 -0.48755,0.01749 -0.68476,-0.0816 -0.45625,-0.22918 -8.02282,-1.106908 -9.92355,-1.151139 -0.1397,-0.003 -0.38735,-0.0269 -0.55033,-0.0525 -0.58746,-0.0923 -4.20414,-0.173339 -4.77419,-0.107011 -0.32077,0.0373 -0.78824,0.161732 -1.03886,0.276471 -1.78658,0.81792 -2.73428,3.807982 -2.73741,8.63672 l -8e-4,1.35064 0.27151,0.28013 0.2715,0.28012 -0.18618,0.130421 c -0.1024,0.0717 -0.22401,0.20107 -0.27023,0.28743 -0.0482,0.0901 -0.12283,1.86404 -0.17505,4.161311 l -0.091,4.004289 0.17773,0.134051 c 0.17764,0.133998 0.17765,0.134227 0.0146,0.512188 -0.14854,0.344251 -0.16591,0.6434 -0.19382,3.339913 -0.0289,2.78723 -0.0218,2.96353 0.12017,2.99123 0.11851,0.0231 0.25018,-0.179509 0.61385,-0.94457 0.25464,-0.535709 0.46296,-1.013679 0.46296,-1.06216 0,-0.0485 0.27587,-0.47999 0.61301,-0.95889 1.3423,-1.906622 2.79576,-3.106653 4.73506,-3.909432 0.72249,-0.29907 1.41029,-0.489332 3.41376,-0.944277 3.76255,-0.854435 7.1989,-2.676354 10.28106,-5.450923 1.04479,-0.940541 2.26282,-2.320631 3.42428,-3.879942 0.75704,-1.016326 1.07129,-1.375826 1.20272,-1.375826 0.0978,0 0.20322,0.02529 0.23415,0.0563 0.10672,0.106741 -1.21603,2.421512 -2.2176,3.880753 -0.63613,0.926748 -2.12185,2.38479 -3.41852,3.354808 -2.84404,2.127602 -5.62561,3.381631 -9.33556,4.20879 -3.76999,0.840531 -5.8165,2.01915 -7.28217,4.193889 -0.25522,0.37868 -0.57342,0.82186 -0.70717,0.98484 -0.13371,0.16299 -0.69587,1.22979 -1.24922,2.37067 l -1.00611,2.07433 -0.0266,2.032 c -0.0231,1.76142 -0.007,2.09072 0.12217,2.47296 0.14429,0.42771 0.14385,0.44637 -0.0143,0.62114 -0.15191,0.16785 -0.16692,0.38097 -0.21922,3.11504 -0.047,2.45915 -0.0367,2.96574 0.064,3.12536 0.14529,0.23034 0.37807,0.2412 1.28401,0.0599 z m -55.77019,-10.74905 c 0.38323,-0.46567 1.66223,-1.80926 2.84222,-2.98576 1.17999,-1.1765 2.14544,-2.1721 2.14544,-2.21245 0,-0.0404 0.13893,-0.17933 0.30873,-0.308851 0.16981,-0.12952 0.7819,-0.68499 1.3602,-1.234384 1.58974,-1.510266 2.83196,-2.38429 4.2523,-2.991919 0.34626,-0.14813 0.66726,-0.32911 0.71336,-0.40218 0.1285,-0.203729 -0.42527,-2.221079 -0.699,-2.54639 -0.14858,-0.17658 -0.93905,-0.610317 -2.58792,-1.42005 -3.62684,-1.78103 -5.19122,-2.397911 -7.6052,-2.998899 -2.26972,-0.565081 -4.95209,-0.923851 -5.76585,-0.771189 -0.67653,0.126918 -1.26237,0.97713 -1.54327,2.239698 -0.19756,0.887979 -0.12187,2.536592 0.17029,3.709239 0.20228,0.8118 1.21136,3.520612 2.05646,5.520351 0.20907,0.494693 0.41202,1.051843 0.45102,1.238113 0.10354,0.49455 2.51976,5.8164 2.71773,5.98591 0.10521,0.0901 0.22764,0.12176 0.32739,0.0847 0.0876,-0.0326 0.47288,-0.44025 0.8561,-0.90591 z m -38.38329,-6.24417 c 0.0461,-0.0582 0.39801,-0.810684 0.78202,-1.67217 0.38401,-0.861483 0.76911,-1.640533 0.85578,-1.731224 0.15613,-0.16338 0.17556,-0.163116 2.11735,0.0278 2.02389,0.198953 2.27245,0.183324 2.01593,-0.126749 -0.0655,-0.0792 -0.72257,-0.695981 -1.46005,-1.370541 -0.73749,-0.674569 -1.36122,-1.279486 -1.38608,-1.34428 -0.0249,-0.0648 0.30231,-0.898088 0.72704,-1.851787 0.42473,-0.953701 0.77224,-1.78644 0.77224,-1.850533 0,-0.281249 -0.33469,-0.15218 -1.86145,0.71786 -0.89323,0.509021 -1.71289,0.925491 -1.82148,0.925491 -0.13587,0 -0.64968,-0.409059 -1.64837,-1.312328 -0.79802,-0.721783 -1.48824,-1.312333 -1.53382,-1.312333 -0.18387,0 -0.15207,0.297402 0.21583,2.018141 0.21117,0.98774 0.38395,1.864553 0.38395,1.94845 0,0.212069 -0.26469,0.428098 -1.10066,0.898313 -1.61741,0.909728 -2.45534,1.436037 -2.45534,1.542177 0,0.0617 0.0168,0.112252 0.0374,0.112252 0.14143,0 3.68403,0.430556 3.83504,0.466109 0.10419,0.0245 0.2442,0.129701 0.31113,0.233727 0.0669,0.104045 0.27496,0.933241 0.46224,1.842683 0.1873,0.909431 0.36569,1.719061 0.39643,1.799172 0.0656,0.17086 0.23594,0.18997 0.35487,0.0398 z m 183.05073,-1.10067 c 0.14404,-0.663572 0.32344,-1.497322 0.39868,-1.852784 0.0795,-0.375677 0.20165,-0.704959 0.29168,-0.78644 0.14092,-0.127529 1.46924,-0.343887 3.66914,-0.597641 0.26776,-0.0309 0.48683,-0.0889 0.48683,-0.128955 0,-0.110133 -0.32892,-0.323874 -1.94472,-1.263724 -0.81346,-0.47317 -1.50821,-0.906206 -1.54386,-0.9623 -0.11743,-0.184748 -0.0713,-0.542208 0.27125,-2.102107 0.37578,-1.711214 0.3957,-1.896882 0.21103,-1.967743 -0.13172,-0.0506 -0.52023,0.26376 -2.11603,1.711859 -0.55778,0.506151 -0.91542,0.769332 -1.04816,0.771324 -0.11082,0.0021 -0.93529,-0.416512 -1.83214,-0.929251 -1.47569,-0.843682 -1.90337,-1.01659 -1.90337,-0.769559 0,0.0319 0.3429,0.829548 0.762,1.772497 0.4191,0.94294 0.762,1.800661 0.762,1.906042 0,0.14051 -0.38383,0.538409 -1.43933,1.492139 -0.79164,0.715293 -1.43934,1.34729 -1.43934,1.404451 0,0.0571 0.0523,0.12397 0.11619,0.1485 0.0639,0.0245 0.96171,-0.0363 1.99512,-0.135242 1.3175,-0.12609 1.92017,-0.15381 2.01693,-0.0928 0.12129,0.0765 0.36697,0.5852 1.45692,3.0167 0.18166,0.405264 0.30143,0.571504 0.41175,0.571504 0.13145,0 0.19617,-0.18703 0.41743,-1.206504 z M 212.17463,68.747765 c 0,-0.254971 -0.54792,-1.91412 -1.07596,-3.2581 -0.70935,-1.805419 -1.2369,-2.77663 -1.83959,-3.386601 -0.70521,-0.713729 -1.17997,-0.933561 -1.99512,-0.9238 -0.56961,0.007 -0.82243,0.0753 -2.45533,0.665109 -3.70736,1.339123 -5.92669,2.214571 -5.92669,2.337885 0,0.146868 0.32711,0.240448 1.6125,0.461317 2.4357,0.418539 4.21059,0.903629 5.86618,1.603269 0.47356,0.200123 1.87066,0.882441 3.10467,1.516261 2.24927,1.155282 2.70934,1.32248 2.70934,0.98466 z m -29.22117,-4.7186 c 0.5024,-0.779989 1.0288,-1.539817 1.16981,-1.688521 l 0.25637,-0.270348 0.45663,0.110519 c 0.25115,0.0608 1.05848,0.270589 1.79406,0.46623 1.30396,0.346811 1.6678,0.392459 1.72559,0.216509 0.0156,-0.0474 -0.52439,-0.764469 -1.19986,-1.593578 -0.67548,-0.829111 -1.22815,-1.568061 -1.22815,-1.64212 0,-0.169831 0.24773,-0.592082 1.24018,-2.11386 0.79362,-1.216901 0.89004,-1.432282 0.67773,-1.51375 -0.0627,-0.0241 -0.90434,0.262869 -1.87023,0.637659 -0.96588,0.37478 -1.80196,0.681429 -1.85795,0.681429 -0.14292,0 -0.63544,-0.534051 -1.73733,-1.88383 -0.52269,-0.640289 -1.00512,-1.16417 -1.07204,-1.16417 -0.14678,0 -0.16444,1.300951 -0.0396,2.913909 0.0489,0.631892 0.0481,1.064951 -0.002,1.158881 -0.0488,0.0912 -0.78035,0.424809 -1.86817,0.851871 -0.98335,0.386051 -1.80749,0.75294 -1.83143,0.815311 -0.0239,0.0624 -0.007,0.14996 0.0377,0.194619 0.0447,0.0447 0.8784,0.292653 1.85274,0.551061 1.00456,0.266428 1.83173,0.531209 1.9106,0.61159 0.1117,0.11389 0.15791,0.466378 0.23502,1.792758 0.11746,2.02066 0.15391,2.286 0.31409,2.286 0.0676,0 0.534,-0.63818 1.03638,-1.418169 z M 327.102,65.375198 c 0.0245,-0.0397 0.10432,-0.925504 0.17735,-1.9685 0.10911,-1.558433 0.15863,-1.922264 0.27791,-2.041713 0.0839,-0.084 0.89573,-0.344842 1.92294,-0.61786 0.97778,-0.259871 1.81151,-0.50623 1.85274,-0.54746 0.16865,-0.168648 -0.0638,-0.320011 -1.10129,-0.717039 -2.06896,-0.791771 -2.49521,-0.98878 -2.57109,-1.188352 -0.0406,-0.10686 -0.024,-0.97041 0.0384,-1.998359 0.0605,-0.995611 0.0914,-1.85843 0.0688,-1.91739 -0.11468,-0.29885 -0.19966,-0.21467 -2.11347,2.093481 -0.3665,0.442018 -0.7277,0.815478 -0.80267,0.829919 -0.075,0.01439 -0.94074,-0.28456 -1.92394,-0.66443 -1.70943,-0.660479 -2.12272,-0.75407 -2.00784,-0.454731 0.0279,0.0726 0.44997,0.75815 0.93802,1.523441 1.21073,1.898478 1.19165,1.858062 1.00948,2.138413 -0.0809,0.124509 -0.55135,0.721678 -1.04544,1.327047 -1.0787,1.32162 -1.35848,1.68752 -1.35848,1.776619 0,0.122552 0.78455,-0.0267 2.40241,-0.457118 1.14074,-0.303472 1.64069,-0.402331 1.74698,-0.345451 0.0819,0.0438 0.56036,0.718889 1.06327,1.500151 1.11884,1.738058 1.29128,1.947198 1.42593,1.729332 z M 203.3525,54.821665 c 0.96374,-1.10662 1.3391,-1.481661 1.48293,-1.481661 0.10592,0 0.92733,0.3048 1.82536,0.67733 0.89803,0.372531 1.69957,0.677331 1.7812,0.677331 0.35997,0 0.32976,-0.0718 -0.87257,-2.07441 -0.4473,-0.745022 -0.81332,-1.439079 -0.81337,-1.542341 -6e-5,-0.119899 0.44291,-0.70132 1.2256,-1.608669 1.11968,-1.298001 1.34665,-1.637649 1.16614,-1.74502 -0.0349,-0.0208 -0.8636,0.148288 -1.8415,0.37569 -0.9779,0.227391 -1.86178,0.413589 -1.96419,0.413771 -0.2337,5.29e-4 -0.37818,-0.19527 -1.42959,-1.93617 -0.81788,-1.354223 -0.98128,-1.55398 -1.14072,-1.394542 -0.043,0.043 -0.13604,0.781452 -0.20684,1.64107 -0.18108,2.198952 -0.1925,2.266391 -0.40758,2.405779 -0.1018,0.066 -0.87088,0.276371 -1.70909,0.467561 -1.9362,0.44164 -2.07434,0.486511 -2.07434,0.673714 0,0.115618 0.39854,0.318818 1.71451,0.874168 1.14565,0.483467 1.76254,0.78949 1.85926,0.922297 0.1368,0.187841 0.13556,0.30117 -0.0226,2.060054 -0.0921,1.023697 -0.14887,1.909517 -0.12624,1.9685 0.0226,0.059 0.0911,0.107217 0.15221,0.107217 0.0611,0 0.69175,-0.66675 1.40145,-1.481669 z m 103.70639,1.345718 c 0.0287,-0.0748 -0.0162,-0.952169 -0.0998,-1.949788 -0.10848,-1.294882 -0.12682,-1.869012 -0.0641,-2.00669 0.0667,-0.146431 0.49271,-0.362749 1.7693,-0.898419 0.92479,-0.388049 1.73426,-0.754412 1.79884,-0.814121 0.2536,-0.234489 0.0167,-0.33823 -1.6098,-0.70504 -1.88838,-0.42586 -2.16064,-0.520401 -2.26948,-0.788091 -0.0436,-0.10719 -0.14085,-0.93785 -0.21612,-1.8459 -0.15256,-1.840129 -0.18454,-2.032 -0.33882,-2.032 -0.15768,0 -0.25073,0.132871 -1.23907,1.76929 -0.63831,1.056841 -0.96041,1.51207 -1.10732,1.56495 -0.15231,0.0548 -0.69546,-0.0404 -2.05084,-0.359659 -1.01402,-0.238831 -1.87801,-0.41302 -1.91998,-0.38708 -0.042,0.0259 -0.0763,0.0956 -0.0763,0.154739 0,0.0592 0.5715,0.770789 1.27,1.581391 0.6985,0.810598 1.27,1.535559 1.27,1.611018 0,0.0755 -0.43815,0.870331 -0.97366,1.766372 -0.53551,0.89603 -0.97366,1.68252 -0.97366,1.747729 0,0.225401 0.39204,0.116919 1.90856,-0.528108 0.83623,-0.355682 1.64315,-0.66452 1.79313,-0.686311 0.32338,-0.047 0.29418,-0.074 1.82519,1.692989 0.59502,0.686779 1.12009,1.24868 1.16682,1.24868 0.0467,0 0.10842,-0.0612 0.13711,-0.135951 z m -80.84192,-7.865049 c 0.76145,-0.879289 1.31627,-1.449459 1.42593,-1.465371 0.0987,-0.01429 0.96424,0.304012 1.92336,0.707401 1.58887,0.66825 1.99704,0.782352 1.99704,0.55822 0,-0.0429 -0.43815,-0.807018 -0.97367,-1.697968 -0.53551,-0.89095 -0.97366,-1.71264 -0.97366,-1.825983 0,-0.143449 0.35842,-0.618789 1.17964,-1.564399 1.11526,-1.284189 1.36314,-1.63767 1.23698,-1.763839 -0.0618,-0.0618 -1.05135,0.131069 -2.56882,0.50075 -1.57188,0.38294 -1.40578,0.471109 -2.49206,-1.322811 -1.00321,-1.656709 -1.19513,-1.909479 -1.33995,-1.764659 -0.0985,0.0985 -0.33093,2.35454 -0.33271,3.229009 -0.001,0.44976 -0.033,0.564941 -0.20546,0.737391 -0.1124,0.112408 -0.29339,0.223279 -0.40217,0.24638 -1.15824,0.245989 -3.46937,0.84699 -3.51002,0.91277 -0.0956,0.154639 0.16774,0.297508 1.86295,1.010791 1.03299,0.434649 1.72736,0.775038 1.79723,0.880999 0.0962,0.145849 0.0871,0.45988 -0.0586,2.021199 -0.0949,1.016691 -0.15125,1.903831 -0.12531,1.971421 0.0259,0.0676 0.10695,0.110541 0.18003,0.0955 0.0731,-0.01511 0.69378,-0.67513 1.37931,-1.46676 z m 57.98143,1.347031 c 0.0284,-0.074 -0.0149,-0.945859 -0.0962,-1.937348 -0.0813,-0.991491 -0.12384,-1.878393 -0.0945,-1.970892 0.054,-0.169942 0.49055,-0.38232 2.57229,-1.25127 0.98469,-0.41103 1.27212,-0.59636 1.13597,-0.732509 -0.0423,-0.0424 -0.87347,-0.263211 -1.84694,-0.490802 -0.97347,-0.22759 -1.83476,-0.43878 -1.914,-0.469318 -0.21636,-0.0834 -0.3097,-0.476631 -0.40154,-1.69155 -0.18179,-2.404923 -0.21079,-2.56667 -0.44408,-2.477151 -0.0648,0.0249 -0.49373,0.668581 -0.95324,1.430499 -1.10269,1.828429 -1.18473,1.935652 -1.48122,1.935652 -0.1323,0 -0.97576,-0.173162 -1.87436,-0.384802 -1.69821,-0.39995 -1.98967,-0.42912 -1.97287,-0.19743 0.005,0.0756 0.48174,0.678561 1.05834,1.340041 1.17931,1.35288 1.42936,1.67881 1.42936,1.863 0,0.0704 -0.43815,0.855559 -0.97366,1.744879 -0.53551,0.889331 -0.97366,1.680559 -0.97366,1.758299 0,0.0777 0.0604,0.141341 0.13415,0.141341 0.0738,0 0.89854,-0.32385 1.8328,-0.71967 0.93425,-0.395819 1.78257,-0.719669 1.88514,-0.719669 0.12381,0 0.33948,0.177908 0.64151,0.529169 1.39607,1.623632 2.12953,2.43417 2.20268,2.43417 0.0453,0 0.10562,-0.0606 0.13403,-0.134639 z m -20.82273,-1.410531 c 0.172,-0.185668 0.6417,-1.815049 2.51401,-8.72101 0.35039,-1.292418 0.6919,-2.454468 0.7589,-2.582339 0.1612,-0.307681 0.38572,-0.538961 0.83967,-0.86496 0.68013,-0.488442 0.98983,-1.097031 0.98983,-1.945132 0,-1.0687 -0.50156,-1.89788 -1.42118,-2.349468 -0.40772,-0.200221 -0.59034,-0.237591 -1.16115,-0.237591 -0.7594,0 -1.06884,0.114001 -1.64269,0.6052 -1.24002,1.061411 -1.16055,2.94988 0.16713,3.971499 0.40592,0.312352 0.50189,0.432541 0.50189,0.628571 0,0.39724 -0.79132,2.563061 -1.19309,3.265429 -0.8173,1.428822 -1.91983,2.267302 -3.12811,2.378951 -0.70548,0.0652 -1.788,-0.194339 -2.43681,-0.584219 -1.09377,-0.657262 -2.06292,-2.230371 -2.59197,-4.207232 -0.23961,-0.895307 -0.20597,-1.066289 0.25898,-1.316677 0.75451,-0.406332 1.25011,-1.280071 1.24877,-2.201522 -0.002,-1.448451 -1.08814,-2.536669 -2.52943,-2.534539 -0.76459,0.0011 -1.34033,0.249219 -1.85481,0.79923 -0.51957,0.555469 -0.6672,0.925359 -0.67583,1.693468 -0.006,0.531352 0.0312,0.713941 0.22711,1.114261 0.23849,0.487482 0.66448,0.929032 1.14654,1.188479 0.23966,0.128982 0.26799,0.184412 0.26799,0.524312 0,0.502049 -0.5103,2.04234 -0.94159,2.842019 -1.27269,2.359901 -3.34559,3.26734 -5.35854,2.345791 -0.8452,-0.386951 -1.77201,-1.451571 -2.29693,-2.638481 -0.34844,-0.787919 -0.88565,-2.413659 -0.88565,-2.680301 0,-0.188388 0.13103,-0.387439 0.54551,-0.828759 0.43371,-0.461791 0.57466,-0.681109 0.6878,-1.07029 0.16092,-0.553559 0.1245,-1.270169 -0.0907,-1.78531 -0.67178,-1.60777 -2.75264,-2.058279 -4.04622,-0.87602 -0.57359,0.524222 -0.84167,1.100079 -0.84727,1.819939 -0.008,1.001472 0.42801,1.786832 1.2484,2.249832 0.24199,0.13657 0.51978,0.334279 0.6173,0.439348 0.12751,0.137382 0.58497,1.653223 1.62906,5.398021 0.79847,2.86385 1.5093,5.407004 1.57964,5.65145 0.22138,0.769522 -0.69694,0.69855 9.03951,0.69855 h 8.65754 z"
       id="path4587"
       inkscape:connector-curvature="0" />
  </g>
</svg>
